<svg width="204" height="321" viewBox="0 0 204 321" fill="none" xmlns="http://www.w3.org/2000/svg">
<path fill-rule="evenodd" clip-rule="evenodd" d="M34.2354 199.109L47.5375 206.789L90.8388 181.789L77.5366 174.109L34.2354 199.109ZM47.5375 206.79C49.385 207.856 51.2787 208.79 53.2186 209.59L53.2188 209.589C55.251 210.336 57.0522 210.683 58.6226 210.629L101.924 185.629C100.353 185.683 98.5521 185.336 96.5199 184.589L96.5197 184.589C94.5799 183.789 92.6862 182.856 90.8388 181.79L47.5375 206.79Z" fill="white"/>
<path fill-rule="evenodd" clip-rule="evenodd" d="M34.2354 173.189V199.109L77.5366 174.109V148.189L34.2354 173.189Z" fill="#E7F2FF" stroke="#3692FF" stroke-width="2"/>
<path fill-rule="evenodd" clip-rule="evenodd" d="M34.2354 153.029L46.9832 160.389L46.9834 160.389C51.4174 162.949 54.8352 163.909 57.237 163.269L59.2028 162.134C58.9966 162.343 58.7725 162.527 58.5303 162.688L58.081 162.947C58.2371 162.869 58.3869 162.783 58.5303 162.688L101.382 137.947C103.314 136.982 104.279 134.716 104.279 131.149L93.8233 137.186C92.726 136.717 91.5464 136.118 90.2845 135.389L90.2844 135.389L77.5366 128.029L34.2354 153.029Z" fill="white"/>
<path fill-rule="evenodd" clip-rule="evenodd" d="M34.2354 129.67V153.03L77.5366 128.03V104.67L34.2354 129.67Z" fill="#E7F2FF" stroke="#3692FF" stroke-width="2"/>
<path fill-rule="evenodd" clip-rule="evenodd" d="M75.5275 188.709C73.1257 185.83 70.5392 183.322 67.7679 181.189L111.069 156.189C113.84 158.322 116.427 160.83 118.829 163.709C120.985 166.153 122.865 168.756 124.469 171.519L124.5 171.501C126.348 174.808 128.482 179.576 129.498 183.149L129.498 183.149C130.607 186.776 131.161 190.456 131.161 194.189C131.161 200.376 130.099 204.989 127.974 208.029L84.6728 233.029C86.7974 229.989 87.8598 225.376 87.8598 219.189C87.8598 215.457 87.3055 211.777 86.197 208.15L86.197 208.15C85.1809 204.576 82.8476 199.808 81.0001 196.501L81.1179 196.433C79.5249 193.703 77.6615 191.128 75.5275 188.709Z" fill="#E7F2FF"/>
<path d="M67.7679 181.189L67.0179 179.89L65.0769 181.011L66.853 182.378L67.7679 181.189ZM75.5275 188.709L74.3756 189.67L74.3889 189.686L74.4027 189.702L75.5275 188.709ZM111.069 156.189L111.984 155.001L111.189 154.388L110.319 154.89L111.069 156.189ZM118.829 163.709L117.677 164.67L117.69 164.686L117.704 164.702L118.829 163.709ZM124.469 171.519L123.172 172.272L123.922 173.564L125.216 172.819L124.469 171.519ZM124.5 171.501L125.81 170.769L125.069 169.444L123.753 170.2L124.5 171.501ZM129.498 183.149L128.055 183.56L128.587 185.43L130.261 184.441L129.498 183.149ZM129.498 183.149L130.933 182.711L130.376 180.889L128.735 181.858L129.498 183.149ZM131.161 194.189H132.661H132.661H131.161ZM127.974 208.029L128.724 209.328L129.013 209.162L129.204 208.889L127.974 208.029ZM84.6728 233.029L83.4432 232.17L85.4228 234.328L84.6728 233.029ZM87.8598 219.189H89.3598H87.8598ZM86.197 208.15L87.6315 207.711L87.0777 205.899L85.4412 206.854L86.197 208.15ZM86.197 208.15L84.7541 208.56L85.2829 210.419L86.9528 209.445L86.197 208.15ZM81.0001 196.501L80.2527 195.2L78.9678 195.939L79.6906 197.233L81.0001 196.501ZM81.1179 196.433L81.8653 197.734L83.1743 196.982L82.4135 195.677L81.1179 196.433ZM66.853 182.378C69.531 184.439 72.039 186.869 74.3756 189.67L76.6795 187.749C74.2124 184.791 71.5474 182.206 68.6828 180.001L66.853 182.378ZM110.319 154.89L67.0179 179.89L68.5179 182.488L111.819 157.488L110.319 154.89ZM119.981 162.749C117.514 159.791 114.849 157.206 111.984 155.001L110.154 157.378C112.832 159.439 115.34 161.869 117.677 164.67L119.981 162.749ZM125.766 170.766C124.112 167.916 122.174 165.233 119.954 162.717L117.704 164.702C119.796 167.073 121.618 169.596 123.172 172.272L125.766 170.766ZM123.753 170.2L123.722 170.218L125.216 172.819L125.248 172.801L123.753 170.2ZM130.941 182.739C129.885 179.024 127.696 174.146 125.81 170.769L123.191 172.233C124.999 175.469 127.08 180.128 128.055 183.56L130.941 182.739ZM128.735 181.858L128.735 181.858L130.261 184.441L130.261 184.441L128.735 181.858ZM132.661 194.189C132.661 190.305 132.084 186.478 130.933 182.711L128.064 183.588C129.13 187.075 129.661 190.607 129.661 194.189H132.661ZM129.204 208.889C131.587 205.478 132.661 200.499 132.661 194.189H129.661C129.661 200.254 128.611 204.5 126.744 207.17L129.204 208.889ZM85.4228 234.328L128.724 209.328L127.224 206.73L83.9228 231.73L85.4228 234.328ZM86.3598 219.189C86.3598 225.254 85.3093 229.5 83.4432 232.17L85.9023 233.889C88.2855 230.478 89.3598 225.499 89.3598 219.189H86.3598ZM84.7625 208.588C85.8283 212.075 86.3598 215.607 86.3598 219.189H89.3598C89.3598 215.306 88.7827 211.478 87.6315 207.711L84.7625 208.588ZM86.9528 209.445L86.9528 209.445L85.4412 206.854L85.4412 206.854L86.9528 209.445ZM79.6906 197.233C81.5231 200.512 83.7869 205.158 84.7541 208.56L87.6398 207.739C86.5748 203.994 84.172 199.103 82.3095 195.769L79.6906 197.233ZM80.3705 195.133L80.2527 195.2L81.7475 197.801L81.8653 197.734L80.3705 195.133ZM74.4027 189.702C76.4735 192.049 78.2794 194.544 79.8222 197.189L82.4135 195.677C80.7704 192.861 78.8494 190.207 76.6523 187.717L74.4027 189.702Z" fill="#3692FF"/>
<path fill-rule="evenodd" clip-rule="evenodd" d="M50.4474 117.269L11.3723 94.709L54.6736 69.709L93.7486 92.269C97.536 94.4557 101.416 97.1757 105.388 100.429C109.36 103.576 112.963 107.202 116.196 111.309V111.309C119.429 115.309 122.062 119.762 124.094 124.669C126.126 129.576 127.143 134.909 127.143 140.669C127.143 146.962 125.665 151.336 122.709 153.789L79.4073 178.789C82.3633 176.336 83.8413 171.962 83.8413 165.669C83.8413 159.909 82.8251 154.576 80.7929 149.669C78.7606 144.762 76.1279 140.309 72.8948 136.309L72.8948 136.309C69.6615 132.202 66.0589 128.576 62.0868 125.429L62.0868 125.429C58.1146 122.176 54.2348 119.456 50.4474 117.269L50.4474 117.269Z" fill="white"/>
<path d="M11.3723 94.709L10.6223 93.4099L8.37231 94.709L10.6223 96.008L11.3723 94.709ZM50.4474 117.269L51.9441 117.369L52.0062 116.437L51.1974 115.97L50.4474 117.269ZM54.6736 69.709L55.4236 68.4099L54.6736 67.9769L53.9236 68.4099L54.6736 69.709ZM93.7486 92.269L94.4987 90.97L94.4986 90.9699L93.7486 92.269ZM105.388 100.429L104.438 101.589L104.447 101.597L104.457 101.605L105.388 100.429ZM116.196 111.309H117.696V110.789L117.375 110.381L116.196 111.309ZM116.196 111.309H114.696V111.84L115.029 112.252L116.196 111.309ZM124.094 124.669L125.48 124.095L125.48 124.095L124.094 124.669ZM127.143 140.669H125.643H127.143ZM122.709 153.789L123.459 155.088L123.569 155.024L123.667 154.943L122.709 153.789ZM79.4073 178.789L78.4493 177.635L80.1573 180.088L79.4073 178.789ZM83.8413 165.669H82.3413H83.8413ZM80.7929 149.669L82.1787 149.095L82.1787 149.095L80.7929 149.669ZM72.8948 136.309L71.3955 136.356L71.4112 136.86L71.7282 137.252L72.8948 136.309ZM72.8948 136.309L74.394 136.262L74.3786 135.769L74.0733 135.381L72.8948 136.309ZM62.0868 125.429L63.0182 124.253L60.8338 122.523L60.5924 125.299L62.0868 125.429ZM62.0868 125.429L61.1363 126.589L63.3349 128.39L63.5811 125.559L62.0868 125.429ZM50.4474 117.269L48.9507 117.169L48.8886 118.101L49.6974 118.568L50.4474 117.269ZM10.6223 96.008L49.6974 118.568L51.1974 115.97L12.1223 93.4099L10.6223 96.008ZM53.9236 68.4099L10.6223 93.4099L12.1223 96.008L55.4236 71.008L53.9236 68.4099ZM94.4986 90.9699L55.4236 68.4099L53.9236 71.008L92.9986 93.568L94.4986 90.9699ZM106.338 99.2686C102.314 95.9723 98.3674 93.2036 94.4987 90.97L92.9986 93.568C96.7047 95.7078 100.518 98.3791 104.438 101.589L106.338 99.2686ZM117.375 110.381C114.071 106.185 110.386 102.475 106.319 99.2533L104.457 101.605C108.334 104.676 111.854 108.219 115.017 112.237L117.375 110.381ZM117.696 111.309V111.309H114.696V111.309H117.696ZM125.48 124.095C123.394 119.06 120.689 114.482 117.363 110.366L115.029 112.252C118.169 116.136 120.729 120.465 122.708 125.243L125.48 124.095ZM128.643 140.669C128.643 134.729 127.594 129.198 125.48 124.095L122.708 125.243C124.659 129.953 125.643 135.089 125.643 140.669H128.643ZM123.667 154.943C127.135 152.065 128.643 147.129 128.643 140.669H125.643C125.643 146.795 124.194 150.606 121.751 152.635L123.667 154.943ZM80.1573 180.088L123.459 155.088L121.959 152.49L78.6573 177.49L80.1573 180.088ZM82.3413 165.669C82.3413 171.795 80.8932 175.606 78.4493 177.635L80.3652 179.943C83.8334 177.065 85.3413 172.129 85.3413 165.669H82.3413ZM79.4071 150.243C81.3577 154.953 82.3413 160.089 82.3413 165.669H85.3413C85.3413 159.729 84.2925 154.199 82.1787 149.095L79.4071 150.243ZM71.7282 137.252C74.868 141.137 77.428 145.465 79.4071 150.243L82.1787 149.095C80.0932 144.06 77.3878 139.482 74.0613 135.366L71.7282 137.252ZM71.3955 136.356L71.3955 136.356L74.394 136.262L74.394 136.262L71.3955 136.356ZM61.1553 126.605C65.0328 129.676 68.5531 133.219 71.7162 137.237L74.0733 135.381C70.77 131.185 67.0849 127.475 63.0182 124.253L61.1553 126.605ZM63.5811 125.559L63.5811 125.559L60.5924 125.299L60.5924 125.299L63.5811 125.559ZM49.6974 118.568C53.4034 120.708 57.2165 123.379 61.1363 126.589L63.0372 124.269C59.0126 120.972 55.0661 118.204 51.1974 115.97L49.6974 118.568ZM48.9507 117.169L48.9507 117.169L51.9441 117.369L51.9441 117.369L48.9507 117.169Z" fill="#3692FF"/>
<path d="M87.8596 219.188C87.8596 225.375 86.7973 229.988 84.6727 233.028C82.548 235.962 79.7305 237.695 76.2203 238.228C72.71 238.762 68.6916 238.308 64.1652 236.868C59.7311 235.375 55.1585 233.268 50.4473 230.548L11.3723 207.988V94.7084L50.4473 117.268C54.2348 119.455 58.1146 122.175 62.0867 125.428C66.0589 128.575 69.6616 132.202 72.8947 136.308C76.1279 140.308 78.7606 144.762 80.7929 149.668C82.8251 154.575 83.8413 159.908 83.8413 165.668C83.8413 171.962 82.3633 176.335 79.4072 178.788C76.4512 181.135 72.5714 181.828 67.7678 180.868V181.188C70.5391 183.322 73.1257 185.828 75.5274 188.708C78.0216 191.535 80.1462 194.575 81.9014 197.828C83.7489 201.135 85.1807 204.575 86.1969 208.148C87.3054 211.775 87.8596 215.455 87.8596 219.188ZM60.9782 156.148C60.9782 152.308 59.6849 148.788 57.0984 145.588C54.6043 142.335 50.863 139.268 45.8747 136.388L34.2353 129.668V153.028L46.9832 160.388C51.4173 162.948 54.8352 163.908 57.237 163.268C59.7311 162.575 60.9782 160.202 60.9782 156.148ZM64.1652 202.948C64.1652 198.255 62.641 194.122 59.5926 190.548C56.5442 186.975 52.4796 183.722 47.3989 180.788L34.2353 173.188V199.108L47.5375 206.788C49.385 207.855 51.2787 208.788 53.2186 209.588C55.2509 210.335 57.0522 210.682 58.6226 210.628C60.2854 210.628 61.6248 210.068 62.641 208.948C63.6571 207.722 64.1652 205.722 64.1652 202.948Z" fill="white"/>
<path d="M84.6727 233.028L85.7916 234.436C85.794 234.433 85.7964 234.43 85.7988 234.426L84.6727 233.028ZM76.2203 238.228L75.5266 236.56L76.2203 238.228ZM64.1652 236.868L64.4301 238.49C64.4367 238.492 64.4432 238.494 64.4497 238.496L64.1652 236.868ZM11.3723 207.988L10.0732 207.238C10.0732 208.067 10.6548 209.074 11.3723 209.488V207.988ZM11.3723 94.7084V93.2084C10.6548 92.7942 10.0732 93.13 10.0732 93.9584L11.3723 94.7084ZM62.0867 125.428L61.8206 126.743C61.8301 126.751 61.8396 126.758 61.8491 126.766L62.0867 125.428ZM72.8947 136.308L72.2264 137.209C72.2343 137.219 72.2422 137.229 72.2502 137.239L72.8947 136.308ZM80.7929 149.668L79.6931 149.832V149.832L80.7929 149.668ZM79.4072 178.788L80.4009 180.328C80.4044 180.325 80.408 180.323 80.4115 180.32L79.4072 178.788ZM67.7678 180.868L67.3642 179.21C66.8301 179.103 66.4688 179.47 66.4688 180.118L67.7678 180.868ZM67.7678 181.188L66.4688 180.438C66.4688 181.172 66.9279 182.063 67.5543 182.545L67.7678 181.188ZM75.5274 188.708L74.9116 189.674C74.9288 189.694 74.9462 189.715 74.9639 189.735L75.5274 188.708ZM81.9014 197.828L80.9381 198.279C80.9455 198.292 80.9531 198.306 80.9607 198.32L81.9014 197.828ZM86.1969 208.148L84.9878 207.999C84.9926 208.016 84.9977 208.033 85.0029 208.05L86.1969 208.148ZM57.0984 145.588L56.4063 146.458C56.4219 146.479 56.4378 146.499 56.4539 146.519L57.0984 145.588ZM34.2353 129.668V128.168C33.5179 127.754 32.9363 128.09 32.9363 128.918L34.2353 129.668ZM34.2353 153.028L32.9363 152.278C32.9363 153.107 33.5179 154.114 34.2353 154.528V153.028ZM57.237 163.268L58.0035 164.922L58.0102 164.92L57.237 163.268ZM59.5926 190.548L60.1875 189.558L60.1875 189.558L59.5926 190.548ZM34.2353 173.188V171.688C33.5179 171.274 32.9363 171.61 32.9363 172.438L34.2353 173.188ZM34.2353 199.108L32.9363 198.358C32.9363 199.187 33.5179 200.194 34.2353 200.608V199.108ZM53.2186 209.588L53.4023 211.179C53.4186 211.186 53.4348 211.192 53.451 211.198L53.2186 209.588ZM58.6226 210.628L58.0417 208.951C58.0327 208.951 58.0237 208.952 58.0148 208.952L58.6226 210.628ZM62.641 208.948L63.7114 210.416C63.7183 210.409 63.725 210.401 63.7316 210.393L62.641 208.948ZM86.5606 218.438C86.5606 224.429 85.5323 228.789 83.5465 231.631L85.7988 234.426C88.0623 231.188 89.1587 226.321 89.1587 219.938L86.5606 218.438ZM83.5537 231.62C81.5332 234.41 78.8609 236.053 75.5266 236.56L76.9139 239.897C80.6002 239.337 83.5629 237.513 85.7916 234.436L83.5537 231.62ZM75.5266 236.56C72.1558 237.072 68.2789 236.64 63.8806 235.241L64.4497 238.496C69.1043 239.977 73.2641 240.452 76.9139 239.897L75.5266 236.56ZM63.9002 235.247C59.5568 233.784 55.0731 231.719 50.4473 229.048V232.048C55.244 234.818 59.9055 236.966 64.4301 238.49L63.9002 235.247ZM50.4473 229.048L11.3723 206.488V209.488L50.4473 232.048V229.048ZM12.6713 208.738V95.4584L10.0732 93.9584V207.238L12.6713 208.738ZM11.3723 96.2084L50.4473 118.768V115.768L11.3723 93.2084V96.2084ZM50.4473 118.768C54.1392 120.9 57.9298 123.556 61.8206 126.743L62.3528 124.114C58.2994 120.794 54.3303 118.01 50.4473 115.768V118.768ZM61.8491 126.766C65.6801 129.801 69.1352 133.282 72.2264 137.209L73.5631 135.408C70.188 131.121 66.4377 127.349 62.3243 124.091L61.8491 126.766ZM72.2502 137.239C75.2932 141.003 77.7714 145.192 79.6931 149.832L81.8927 149.505C79.7498 144.332 76.9626 139.613 73.5392 135.378L72.2502 137.239ZM79.6931 149.832C81.5609 154.341 82.5422 159.356 82.5422 164.918L85.1403 166.418C85.1403 160.461 84.0894 154.809 81.8927 149.505L79.6931 149.832ZM82.5422 164.918C82.5422 170.926 81.1371 174.988 78.403 177.257L80.4115 180.32C83.5895 177.682 85.1403 172.997 85.1403 166.418L82.5422 164.918ZM78.4136 177.249C75.6289 179.459 71.9619 180.129 67.3642 179.21L68.1715 182.527C73.1809 183.528 77.2735 182.811 80.4009 180.328L78.4136 177.249ZM66.4688 180.118V180.438L69.0669 181.938V181.618L66.4688 180.118ZM67.5543 182.545C70.1891 184.573 72.6392 186.949 74.9116 189.674L76.1433 187.743C73.6121 184.708 70.8892 182.071 67.9814 179.832L67.5543 182.545ZM74.9639 189.735C77.3157 192.4 79.3021 195.246 80.9381 198.279L82.8647 197.378C80.9904 193.904 78.7275 190.67 76.091 187.682L74.9639 189.735ZM80.9607 198.32C82.6881 201.411 84.0307 204.633 84.9878 207.999L87.406 208.298C86.3307 204.517 84.8098 200.859 82.8421 197.337L80.9607 198.32ZM85.0029 208.05C86.0325 211.419 86.5606 214.878 86.5606 218.438L89.1587 219.938C89.1587 216.032 88.5782 212.132 87.3909 208.247L85.0029 208.05ZM62.2773 156.898C62.2773 152.596 60.7881 148.426 57.7429 144.658L56.4539 146.519C58.5818 149.151 59.6792 152.021 59.6792 155.398L62.2773 156.898ZM57.7906 144.719C54.9907 141.067 50.9574 137.823 45.8747 134.888V137.888C50.7687 140.714 54.2178 143.604 56.4063 146.458L57.7906 144.719ZM45.8747 134.888L34.2353 128.168V131.168L45.8747 137.888V134.888ZM32.9363 128.918V152.278L35.5344 153.778V130.418L32.9363 128.918ZM34.2353 154.528L46.9832 161.888V158.888L34.2353 151.528V154.528ZM46.9832 161.888C51.5644 164.533 55.2941 165.644 58.0034 164.922L56.4705 161.615C54.3763 162.173 51.2702 161.363 46.9832 158.888V161.888ZM58.0102 164.92C60.8818 164.122 62.2773 161.356 62.2773 156.898L59.6792 155.398C59.6792 159.048 58.5804 161.028 56.4638 161.617L58.0102 164.92ZM65.4642 203.698C65.4642 201.168 65.0534 198.685 64.1646 196.274C63.2692 193.846 61.9268 191.597 60.1875 189.558L58.9977 191.538C60.3067 193.073 61.2507 194.677 61.8795 196.383C62.5149 198.106 62.8661 200.035 62.8661 202.198L65.4642 203.698ZM60.1875 189.558C56.8878 185.691 52.5947 182.288 47.3989 179.288V182.288C52.3645 185.155 56.2005 188.26 58.9977 191.538L60.1875 189.558ZM47.3989 179.288L34.2353 171.688V174.688L47.3989 182.288V179.288ZM32.9363 172.438V198.358L35.5344 199.858V173.938L32.9363 172.438ZM34.2353 200.608L47.5375 208.288V205.288L34.2353 197.608V200.608ZM47.5375 208.288C49.4501 209.393 51.4052 210.356 53.4023 211.179L53.0349 207.997C51.1522 207.221 49.32 206.318 47.5375 205.288V208.288ZM53.451 211.198C55.5935 211.986 57.525 212.363 59.2304 212.305L58.0148 208.952C56.5795 209.001 54.9082 208.685 52.9862 207.978L53.451 211.198ZM59.2036 212.305C61.0555 212.305 62.5662 211.679 63.7114 210.416L61.5705 207.481C60.6835 208.458 59.5153 208.951 58.0417 208.951L59.2036 212.305ZM63.7316 210.393C64.9176 208.961 65.4642 206.68 65.4642 203.698L62.8661 202.198C62.8661 204.764 62.3967 206.482 61.5503 207.504L63.7316 210.393Z" fill="#3692FF"/>
<path fill-rule="evenodd" clip-rule="evenodd" d="M95.1117 169.341L127.397 160.621L170.698 135.621L138.413 144.341L95.1117 169.341Z" fill="white" stroke="#3692FF" stroke-width="3" stroke-linejoin="round"/>
<path fill-rule="evenodd" clip-rule="evenodd" d="M127.397 160.621L148.736 172.941L192.037 147.941L170.698 135.621L127.397 160.621Z" fill="white" stroke="#3692FF" stroke-width="3" stroke-linejoin="round"/>
<path fill-rule="evenodd" clip-rule="evenodd" d="M148.736 172.941V286.221L192.037 261.221V147.941L148.736 172.941Z" fill="#E7F2FF" stroke="#3692FF" stroke-width="3" stroke-linejoin="round"/>
<path fill-rule="evenodd" clip-rule="evenodd" d="M125.457 272.781L168.759 247.781L125.457 272.781Z" fill="#6580E1"/>
<path d="M125.457 272.781V189.581L107.167 195.341L95.1117 169.341L127.397 160.621L148.736 172.941V286.221L125.457 272.781Z" fill="white"/>
<path d="M125.457 272.781L124.158 272.031V273.531L125.457 274.281V272.781ZM125.457 189.581L126.756 190.331V187.276L124.663 187.935L125.457 189.581ZM107.167 195.341L106.118 195.62L106.905 197.319L107.961 196.986L107.167 195.341ZM95.1117 169.341L94.3431 167.688L93.2977 167.97L94.063 169.62L95.1117 169.341ZM127.397 160.621V159.121L126.972 158.875L126.629 158.968L127.397 160.621ZM148.736 172.941L150.035 173.691V172.191L148.736 171.441V172.941ZM148.736 286.221V287.721L150.035 288.471V286.971L148.736 286.221ZM126.756 273.531V190.331L124.158 188.831V272.031L126.756 273.531ZM124.663 187.935L106.372 193.695L107.961 196.986L126.251 191.226L124.663 187.935ZM108.215 195.061L96.1603 169.061L94.063 169.62L106.118 195.62L108.215 195.061ZM95.8803 170.994L128.166 162.274L126.629 158.968L94.3431 167.688L95.8803 170.994ZM127.397 162.121L148.736 174.441V171.441L127.397 159.121V162.121ZM147.437 172.191V285.471L150.035 286.971V173.691L147.437 172.191ZM148.736 284.721L125.457 271.281V274.281L148.736 287.721V284.721Z" fill="#3692FF"/>
</svg>
