<svg width="1115" height="809" viewBox="0 0 1115 809" fill="none" xmlns="http://www.w3.org/2000/svg">
<path d="M118 548.5C118 352.001 256 260.502 393.5 290.001" stroke="#88BFFF" stroke-width="3" stroke-linecap="round" stroke-dasharray="6 6"/>
<path d="M6.50019 574.499C19.0002 526.001 72.0015 502.999 116.002 548.499" stroke="#88BFFF" stroke-width="3" stroke-linecap="round" stroke-dasharray="6 6"/>
<path d="M123.001 537.999C243.898 320.543 535.001 211 763.001 423.001" stroke="#88BFFF" stroke-width="3" stroke-linecap="round" stroke-dasharray="6 6"/>
<path d="M117.001 546C246.001 274 454.001 106 823.001 342" stroke="#88BFFF" stroke-width="3" stroke-linecap="round" stroke-dasharray="6 6"/>
<path d="M117.349 545.69C255.001 250.999 711.501 70.4999 967.501 348.5" stroke="#88BFFF" stroke-width="3" stroke-linecap="round" stroke-dasharray="6 6"/>

<!-- 小车的路径 -->
<path class="car-path" d="M117.35 545.691C223.002 269.999 667.001 -112 1113 396.001" stroke="#88BFFF" stroke-width="3" stroke-linecap="round" stroke-dasharray="6 6"/>

<path d="M117.001 548.998C125.001 397 373.001 -25 861.001 280.999" stroke="#88BFFF" stroke-width="3" stroke-linecap="round" stroke-dasharray="6 6"/>
<path d="M116.997 548.858C153.996 397.86 390.002 12.9999 817.002 305" stroke="#88BFFF" stroke-width="3" stroke-linecap="round" stroke-dasharray="6 6"/>
<path d="M118.502 548C164.502 446 194.502 233.003 482.502 339.002" stroke="#88BFFF" stroke-width="3" stroke-linecap="round" stroke-dasharray="6 6"/>
<path d="M113.001 551.5C92.001 563.5 87.001 584.5 95.0008 605.5" stroke="#88BFFF" stroke-width="3" stroke-linecap="round" stroke-dasharray="6 6"/>
<path d="M112.001 552C73.0011 544.499 39.0012 562.999 51.501 613.499" stroke="#88BFFF" stroke-width="3" stroke-linecap="round" stroke-dasharray="6 6"/>
<path d="M111.502 549C46.0018 545 23.5022 586.499 36.002 636.999" stroke="#88BFFF" stroke-width="3" stroke-linecap="round" stroke-dasharray="6 6"/>
<path d="M115.5 548.999C24.5002 529.998 -1.00102 608.5 23.499 666" stroke="#88BFFF" stroke-width="3" stroke-linecap="round" stroke-dasharray="6 6"/>
<path d="M141.501 582.998C146.001 565.499 134.501 556.5 123.285 554.333" stroke="#88BFFF" stroke-width="3" stroke-linecap="round" stroke-dasharray="6 6"/>
</svg>
