<svg width="114" height="163" viewBox="0 0 114 163" fill="none" xmlns="http://www.w3.org/2000/svg">
<path fill-rule="evenodd" clip-rule="evenodd" d="M108.171 15.2941C107.973 15.1659 107.769 15.0483 107.558 14.9416L108.171 15.2941ZM97.8972 16.0945C101.636 13.9429 105.035 13.6612 107.558 14.9416L87.017 3.11961C84.4449 1.4528 80.7936 1.58906 76.7434 3.92003L76.7435 3.9201L16.1026 38.8203H16.1025C8.31393 43.3028 2 54.2042 2 63.1692V111.867C2 116.17 3.45473 119.245 5.829 120.784L16.8077 127.102V142.303L37.9615 154.478V131.752L23.1538 123.23V75.3437C23.1538 66.3787 29.4677 55.4773 37.2564 50.9948H37.2564L97.8973 16.0946L97.8972 16.0945Z" fill="white"/>
<path d="M108.171 15.2941L107.173 17.0275C108.113 17.5682 109.312 17.262 109.877 16.3371C110.443 15.4121 110.168 14.2052 109.258 13.6157L108.171 15.2941ZM97.8972 16.0945L96.8996 14.3611C96.2576 14.7306 95.8724 15.4246 95.8984 16.1649C95.9245 16.9052 96.3576 17.5704 97.024 17.8938L97.8972 16.0945ZM87.017 3.11961L85.9294 4.79801C85.9589 4.81714 85.9889 4.83549 86.0194 4.85303L87.017 3.11961ZM76.7434 3.92003L75.7458 2.18661C75.1056 2.55503 74.7206 3.24628 74.7444 3.9845C74.7682 4.72272 75.197 5.38772 75.8595 5.71413L76.7434 3.92003ZM76.7435 3.9201L77.7411 5.65352C78.3813 5.2851 78.7663 4.59385 78.7425 3.85563C78.7187 3.11741 78.2899 2.45241 77.6274 2.126L76.7435 3.9201ZM16.1026 38.8203V40.8203C16.4527 40.8203 16.7967 40.7284 17.1002 40.5537L16.1026 38.8203ZM16.1025 38.8203V36.8203C15.7524 36.8203 15.4084 36.9122 15.1049 37.0869L16.1025 38.8203ZM5.829 120.784L4.74137 122.462C4.77088 122.481 4.8009 122.5 4.83138 122.517L5.829 120.784ZM16.8077 127.102H18.8077C18.8077 126.387 18.4254 125.726 17.8053 125.369L16.8077 127.102ZM16.8077 142.303H14.8077C14.8077 143.019 15.1899 143.68 15.81 144.037L16.8077 142.303ZM37.9615 154.478L36.9639 156.211C37.5827 156.567 38.3445 156.567 38.9627 156.209C39.5808 155.852 39.9615 155.192 39.9615 154.478H37.9615ZM37.9615 131.752H39.9615C39.9615 131.037 39.5792 130.376 38.9591 130.019L37.9615 131.752ZM23.1538 123.23H21.1538C21.1538 123.946 21.5361 124.607 22.1562 124.963L23.1538 123.23ZM37.2564 50.9948V48.9948C36.9062 48.9948 36.5622 49.0867 36.2587 49.2613L37.2564 50.9948ZM37.2564 50.9948V52.9948C37.6065 52.9948 37.9506 52.9028 38.254 52.7282L37.2564 50.9948ZM97.8973 16.0946L98.895 17.828C99.537 17.4585 99.9222 16.7645 99.8961 16.0242C99.87 15.2839 99.4369 14.6187 98.7705 14.2953L97.8973 16.0946ZM109.258 13.6157C109.002 13.4492 108.736 13.2965 108.463 13.158L106.653 16.7252C106.801 16.8001 106.944 16.8825 107.083 16.9725L109.258 13.6157ZM106.561 16.675L107.173 17.0275L109.168 13.5607L108.556 13.2082L106.561 16.675ZM108.463 13.158C105.13 11.4672 100.989 12.0078 96.8996 14.3611L98.8948 17.8279C102.283 15.8779 104.939 15.8553 106.653 16.7252L108.463 13.158ZM86.0194 4.85303L106.561 16.675L108.556 13.2082L88.0146 1.38619L86.0194 4.85303ZM77.741 5.65345C81.4132 3.54001 84.2132 3.68589 85.9294 4.79801L88.1047 1.44122C84.6766 -0.780281 80.1739 -0.361894 75.7458 2.18661L77.741 5.65345ZM77.6274 2.126L77.6273 2.12593L75.8595 5.71413L75.8597 5.7142L77.6274 2.126ZM75.7459 2.18668L15.105 37.0869L17.1002 40.5537L77.7411 5.65352L75.7459 2.18668ZM16.1026 36.8203H16.1025V40.8203H16.1026V36.8203ZM15.1049 37.0869C10.8352 39.5442 7.08157 43.6813 4.39987 48.3114C1.71831 52.9413 0 58.2516 0 63.1692H4C4 59.1218 5.43865 54.4989 7.86122 50.3162C10.2836 46.1337 13.5813 42.5789 17.1002 40.5537L15.1049 37.0869ZM0 63.1692V111.867H4V63.1692H0ZM0 111.867C0 116.578 1.60337 120.429 4.74137 122.462L6.91664 119.105C5.30608 118.062 4 115.763 4 111.867H0ZM4.83138 122.517L15.81 128.836L17.8053 125.369L6.82662 119.05L4.83138 122.517ZM14.8077 127.102V142.303H18.8077V127.102H14.8077ZM15.81 144.037L36.9639 156.211L38.9591 152.744L17.8053 140.57L15.81 144.037ZM39.9615 154.478V131.752H35.9615V154.478H39.9615ZM38.9591 130.019L24.1514 121.497L22.1562 124.963L36.9639 133.486L38.9591 130.019ZM25.1538 123.23V75.3437H21.1538V123.23H25.1538ZM25.1538 75.3437C25.1538 71.2963 26.5925 66.6734 29.015 62.4907C31.4374 58.3082 34.7351 54.7534 38.254 52.7282L36.2587 49.2613C31.989 51.7187 28.2354 55.8558 25.5537 60.4859C22.8721 65.1158 21.1538 70.4261 21.1538 75.3437H25.1538ZM37.2564 52.9948H37.2564V48.9948H37.2564V52.9948ZM38.254 52.7282L98.895 17.828L96.8997 14.3612L36.2588 49.2613L38.254 52.7282ZM98.7705 14.2953L98.7704 14.2952L97.024 17.8938L97.0241 17.8939L98.7705 14.2953Z" fill="#3692FF"/>
<path d="M37.2565 50.9948C29.4679 55.4773 23.1539 66.3787 23.1539 75.3437V124.042C23.1539 133.007 29.4679 136.641 37.2565 132.158L37.9616 131.752V154.478L61.4658 118.225L97.8974 97.2578C105.686 92.7753 112 81.8739 112 72.9089V24.2109C112 15.2459 105.686 11.6121 97.8974 16.0946L37.2565 50.9948Z" fill="#FFE791" stroke="#3692FF" stroke-width="4" stroke-linejoin="round"/>
</svg>
