<svg width="515" height="298" viewBox="0 0 515 298" fill="none" xmlns="http://www.w3.org/2000/svg">
<mask id="path-1-inside-1_1283_8889" fill="white">
<path fill-rule="evenodd" clip-rule="evenodd" d="M30 0C13.4315 0 0 13.4315 0 30V204C0 220.569 13.4315 234 30 234H98.182V298L160.587 234H485C501.569 234 515 220.569 515 204V30C515 13.4315 501.569 0 485 0H30Z"/>
</mask>
<path fill-rule="evenodd" clip-rule="evenodd" d="M30 0C13.4315 0 0 13.4315 0 30V204C0 220.569 13.4315 234 30 234H98.182V298L160.587 234H485C501.569 234 515 220.569 515 204V30C515 13.4315 501.569 0 485 0H30Z" fill="white"/>
<path d="M98.182 234H102.182V230H98.182V234ZM98.182 298H94.182V307.832L101.046 300.793L98.182 298ZM160.587 234V230H158.901L157.723 231.207L160.587 234ZM4 30C4 15.6406 15.6406 4 30 4V-4C11.2223 -4 -4 11.2223 -4 30H4ZM4 204V30H-4V204H4ZM30 230C15.6406 230 4 218.359 4 204H-4C-4 222.778 11.2223 238 30 238V230ZM98.182 230H30V238H98.182V230ZM102.182 298V234H94.182V298H102.182ZM157.723 231.207L95.3181 295.208L101.046 300.793L163.451 236.793L157.723 231.207ZM485 230H160.587V238H485V230ZM511 204C511 218.359 499.359 230 485 230V238C503.778 238 519 222.778 519 204H511ZM511 30V204H519V30H511ZM485 4C499.359 4 511 15.6406 511 30H519C519 11.2223 503.778 -4 485 -4V4ZM30 4H485V-4H30V4Z" fill="#3692FF" mask="url(#path-1-inside-1_1283_8889)"/>
</svg>
