<svg width="550" height="298" viewBox="0 0 550 298" fill="none" xmlns="http://www.w3.org/2000/svg">
<mask id="path-1-inside-1_1489_9163" fill="white">
<path fill-rule="evenodd" clip-rule="evenodd" d="M30 0C13.4315 0 0 13.4315 0 30V204C0 220.569 13.4315 234 30 234H98.182V298L160.587 234H520C536.569 234 550 220.569 550 204V30C550 13.4315 536.569 0 520 0H30Z"/>
</mask>
<path fill-rule="evenodd" clip-rule="evenodd" d="M30 0C13.4315 0 0 13.4315 0 30V204C0 220.569 13.4315 234 30 234H98.182V298L160.587 234H520C536.569 234 550 220.569 550 204V30C550 13.4315 536.569 0 520 0H30Z" fill="white"/>
<path d="M98.182 234H102.182V230H98.182V234ZM98.182 298H94.182V307.832L101.046 300.793L98.182 298ZM160.587 234V230H158.901L157.723 231.207L160.587 234ZM4 30C4 15.6406 15.6406 4 30 4V-4C11.2223 -4 -4 11.2223 -4 30H4ZM4 204V30H-4V204H4ZM30 230C15.6406 230 4 218.359 4 204H-4C-4 222.778 11.2223 238 30 238V230ZM98.182 230H30V238H98.182V230ZM102.182 298V234H94.182V298H102.182ZM157.723 231.207L95.3181 295.208L101.046 300.793L163.451 236.793L157.723 231.207ZM520 230H160.587V238H520V230ZM546 204C546 218.359 534.359 230 520 230V238C538.778 238 554 222.778 554 204H546ZM546 30V204H554V30H546ZM520 4C534.359 4 546 15.6406 546 30H554C554 11.2223 538.778 -4 520 -4V4ZM30 4H520V-4H30V4Z" fill="#3692FF" mask="url(#path-1-inside-1_1489_9163)"/>
</svg>
