<svg width="607" height="325" viewBox="0 0 607 325" fill="none" xmlns="http://www.w3.org/2000/svg">
<mask id="path-1-inside-1_1283_6832" fill="white">
<path fill-rule="evenodd" clip-rule="evenodd" d="M484.999 0C501.568 0 514.999 13.4315 514.999 30V86L607 86L514.999 175.708V295C514.999 311.569 501.568 325 484.999 325H29.9994C13.4308 325 -0.000610352 311.569 -0.000610352 295V30C-0.000610352 13.4315 13.4308 0 29.9994 0H484.999Z"/>
</mask>
<path fill-rule="evenodd" clip-rule="evenodd" d="M484.999 0C501.568 0 514.999 13.4315 514.999 30V86L607 86L514.999 175.708V295C514.999 311.569 501.568 325 484.999 325H29.9994C13.4308 325 -0.000610352 311.569 -0.000610352 295V30C-0.000610352 13.4315 13.4308 0 29.9994 0H484.999Z" fill="white"/>
<path d="M514.999 86V90H510.999V86H514.999ZM607 86L607 82H616.832L609.793 88.8639L607 86ZM514.999 175.708H510.999V174.021L512.207 172.844L514.999 175.708ZM510.999 30C510.999 15.6406 499.359 4 484.999 4V-4C503.777 -4 518.999 11.2223 518.999 30H510.999ZM510.999 86V30H518.999V86H510.999ZM607 90L514.999 90V82L607 82L607 90ZM512.207 172.844L604.207 83.1361L609.793 88.8639L517.792 178.572L512.207 172.844ZM510.999 295V175.708H518.999V295H510.999ZM484.999 321C499.359 321 510.999 309.359 510.999 295H518.999C518.999 313.778 503.777 329 484.999 329V321ZM29.9994 321H484.999V329H29.9994V321ZM3.99939 295C3.99939 309.359 15.64 321 29.9994 321V329C11.2217 329 -4.00061 313.778 -4.00061 295H3.99939ZM3.99939 30V295H-4.00061V30H3.99939ZM29.9994 4C15.64 4 3.99939 15.6406 3.99939 30H-4.00061C-4.00061 11.2223 11.2217 -4 29.9994 -4V4ZM484.999 4H29.9994V-4H484.999V4Z" fill="#3692FF" mask="url(#path-1-inside-1_1283_6832)"/>
</svg>
