<svg width="80" height="55" viewBox="0 0 80 55" fill="none" xmlns="http://www.w3.org/2000/svg">
<path d="M1 6C1 3.23858 3.23858 1 6 1H44.6667C47.4281 1 49.6667 3.23858 49.6667 6V33.6667H1V6Z" fill="#88BFFF" stroke="#3692FF" stroke-width="2"/>
<mask id="path-2-inside-1_1283_4759" fill="white">
<path fill-rule="evenodd" clip-rule="evenodd" d="M48.3871 7.74219H65.7866C67.8117 7.74219 69.7002 8.76374 70.8084 10.4587L80 24.5164V32.2583V34.839V39.8067C80 43.1204 77.3137 45.8067 74 45.8067H6C2.68629 45.8067 0 43.1204 0 39.8067V32.2583H48.3871V24.5164V7.74219Z"/>
</mask>
<path fill-rule="evenodd" clip-rule="evenodd" d="M48.3871 7.74219H65.7866C67.8117 7.74219 69.7002 8.76374 70.8084 10.4587L80 24.5164V32.2583V34.839V39.8067C80 43.1204 77.3137 45.8067 74 45.8067H6C2.68629 45.8067 0 43.1204 0 39.8067V32.2583H48.3871V24.5164V7.74219Z" fill="white"/>
<path d="M48.3871 7.74219V5.74219H46.3871V7.74219H48.3871ZM70.8084 10.4587L69.1345 11.5532V11.5532L70.8084 10.4587ZM80 24.5164H82V23.9206L81.6739 23.4219L80 24.5164ZM0 32.2583V30.2583H-2V32.2583H0ZM48.3871 32.2583V34.2583H50.3871V32.2583H48.3871ZM65.7866 5.74219H48.3871V9.74219H65.7866V5.74219ZM72.4824 9.36419C71.0047 7.10425 68.4868 5.74219 65.7866 5.74219V9.74219C67.1367 9.74219 68.3957 10.4232 69.1345 11.5532L72.4824 9.36419ZM81.6739 23.4219L72.4824 9.36419L69.1345 11.5532L78.3261 25.6109L81.6739 23.4219ZM82 32.2583V24.5164H78V32.2583H82ZM78 32.2583V34.839H82V32.2583H78ZM78 34.839V39.8067H82V34.839H78ZM78 39.8067C78 42.0158 76.2091 43.8067 74 43.8067V47.8067C78.4183 47.8067 82 44.225 82 39.8067H78ZM74 43.8067H6V47.8067H74V43.8067ZM6 43.8067C3.79086 43.8067 2 42.0158 2 39.8067H-2C-2 44.225 1.58172 47.8067 6 47.8067V43.8067ZM2 39.8067V32.2583H-2V39.8067H2ZM0 34.2583H48.3871V30.2583H0V34.2583ZM46.3871 24.5164V32.2583H50.3871V24.5164H46.3871ZM46.3871 7.74219V24.5164H50.3871V7.74219H46.3871Z" fill="#3692FF" mask="url(#path-2-inside-1_1283_4759)"/>
<circle cx="19.6765" cy="46.1296" r="7.70968" fill="#88BFFF" stroke="#3692FF" stroke-width="2"/>
<circle cx="19.6773" cy="46.1285" r="3.04839" fill="#C0DDFF" stroke="#3692FF"/>
<circle cx="61.612" cy="46.1296" r="7.70968" fill="#88BFFF" stroke="#3692FF" stroke-width="2"/>
<circle cx="61.6128" cy="46.1285" r="3.04839" fill="#C0DDFF" stroke="#3692FF"/>
<path d="M57 17.334C57 15.6771 58.3431 14.334 60 14.334H71.5183L78.1387 24.334H60C58.3431 24.334 57 22.9908 57 21.334V17.334Z" fill="#C0DDFF" stroke="#3692FF" stroke-width="2"/>
</svg>
