<svg width="100%" height="100%" viewBox="0 0 174 176" fill="none" xmlns="http://www.w3.org/2000/svg">
<path fill-rule="evenodd" clip-rule="evenodd" d="M102.818 41.0963C114.879 34.1331 125.833 33.2819 133.918 37.5262L113.286 25.614C105.2 21.3698 93.8573 22.4195 81.7966 29.3827L81.8212 29.3964C60.2046 42.0746 42.2147 70.24 38.048 96.2316C36.7346 96.8123 35.3983 97.4924 34.0435 98.2746C15.2418 109.13 0 135.529 0 157.24C0 159.265 0.132571 161.177 0.388237 162.972L21.0206 174.884C20.765 173.089 20.6324 171.177 20.6324 169.152C20.6324 147.441 35.8742 121.042 54.6759 110.187C56.0307 109.405 57.367 108.724 58.6805 108.144C62.8705 82.0061 81.0395 53.6703 102.818 41.0963L102.818 41.0963Z" fill="#3692FF"/>
<path fill-rule="evenodd" clip-rule="evenodd" d="M147.593 61.5051C153.643 59.6131 159.078 59.9375 163.422 62.2032L142.79 50.2911C138.445 48.0253 133.01 47.701 126.96 49.593L147.593 61.5051Z" fill="#3692FF"/>
<path d="M58.5795 109.196L59.3698 108.846L59.5289 107.854C63.6383 82.2195 81.4591 54.4285 102.818 42.0969C125.565 28.9637 144.299 37.9992 146.732 62.1116L146.799 62.7792L147.399 62.5916C162.139 57.9821 173.134 66.8739 173.134 85.0762C173.134 85.4056 173.13 85.7362 173.123 86.0677L21.7733 173.45C21.5919 171.932 21.4983 170.332 21.4983 168.652C21.4983 147.494 36.3524 121.766 54.6758 111.187C55.9968 110.425 57.2995 109.762 58.5795 109.196Z" fill="white" stroke="#3692FF" stroke-width="2"/>
</svg>
