<svg width="205" height="321" viewBox="0 0 205 321" fill="none" xmlns="http://www.w3.org/2000/svg">
<path fill-rule="evenodd" clip-rule="evenodd" d="M9.11169 119.341L41.3971 110.621L84.6984 85.6211L52.413 94.3411L9.11169 119.341Z" fill="white" stroke="#3692FF" stroke-width="3" stroke-linejoin="round"/>
<path fill-rule="evenodd" clip-rule="evenodd" d="M41.3971 110.621L62.736 122.941L106.037 97.9411L84.6984 85.6211L41.3971 110.621Z" fill="white" stroke="#3692FF" stroke-width="3" stroke-linejoin="round"/>
<path fill-rule="evenodd" clip-rule="evenodd" d="M62.736 122.941V236.221L106.037 211.221V97.9414L62.736 122.941Z" fill="#E7F2FF" stroke="#3692FF" stroke-width="3" stroke-linejoin="round"/>
<path fill-rule="evenodd" clip-rule="evenodd" d="M39.4573 222.781L82.7585 197.781L39.4573 222.781Z" fill="#6580E1"/>
<path d="M39.4572 222.781V139.581L21.1667 145.341L9.11167 119.341L41.3971 110.621L62.736 122.941V236.221L39.4572 222.781Z" fill="white"/>
<path d="M39.4572 222.781L38.1582 222.031V223.531L39.4572 224.281V222.781ZM39.4572 139.581L40.7562 140.331V137.276L38.6629 137.935L39.4572 139.581ZM21.1667 145.341L20.1181 145.62L20.9054 147.319L21.961 146.986L21.1667 145.341ZM9.11167 119.341L8.34308 117.688L7.29773 117.97L8.063 119.62L9.11167 119.341ZM41.3971 110.621V109.121L40.9716 108.875L40.6285 108.968L41.3971 110.621ZM62.736 122.941L64.035 123.691V122.191L62.736 121.441V122.941ZM62.736 236.221V237.721L64.035 238.471V236.971L62.736 236.221ZM40.7562 223.531V140.331L38.1582 138.831V222.031L40.7562 223.531ZM38.6629 137.935L20.3724 143.695L21.961 146.986L40.2515 141.226L38.6629 137.935ZM22.2154 145.061L10.1603 119.061L8.063 119.62L20.1181 145.62L22.2154 145.061ZM9.88026 120.994L42.1657 112.274L40.6285 108.968L8.34308 117.688L9.88026 120.994ZM41.3971 112.121L62.736 124.441V121.441L41.3971 109.121V112.121ZM61.4369 122.191V235.471L64.035 236.971V123.691L61.4369 122.191ZM62.736 234.721L39.4572 221.281V224.281L62.736 237.721V234.721Z" fill="#3692FF"/>
<path fill-rule="evenodd" clip-rule="evenodd" d="M118.678 225.078V269.078L161.979 244.078V200.078L118.678 225.078Z" fill="#E7F2FF" stroke="#3692FF" stroke-width="3" stroke-linejoin="round"/>
<path fill-rule="evenodd" clip-rule="evenodd" d="M118.678 179.158V202.518L161.979 177.518V154.158L118.678 179.158Z" fill="#E7F2FF" stroke="#3692FF" stroke-width="3" stroke-linejoin="round"/>
<path fill-rule="evenodd" clip-rule="evenodd" d="M118.678 202.518L156.645 224.438L199.946 199.438L161.979 177.518L118.678 202.518Z" fill="white" stroke="#3692FF" stroke-width="3" stroke-linejoin="round"/>
<path fill-rule="evenodd" clip-rule="evenodd" d="M156.645 224.438V246.998L199.946 221.997V199.438L156.645 224.438Z" fill="#E7F2FF" stroke="#3692FF" stroke-width="3" stroke-linejoin="round"/>
<path fill-rule="evenodd" clip-rule="evenodd" d="M95.2607 142.277L159.832 179.557L203.133 154.557L138.562 117.277L95.2607 142.277Z" fill="white" stroke="#3692FF" stroke-width="3" stroke-linejoin="round"/>
<path fill-rule="evenodd" clip-rule="evenodd" d="M159.832 179.559V202.919L203.133 177.919V154.559L159.832 179.559Z" fill="#E7F2FF" stroke="#3692FF" stroke-width="3" stroke-linejoin="round"/>
<path d="M118.678 179.157V202.517L156.644 224.437V246.997L118.678 225.077V269.077L95.2606 255.557V142.277L159.831 179.557V202.917L118.678 179.157Z" fill="white" stroke="#3692FF" stroke-width="3" stroke-linejoin="round"/>
</svg>
