<svg width="205" height="321" viewBox="0 0 205 321" fill="none" xmlns="http://www.w3.org/2000/svg">
<path fill-rule="evenodd" clip-rule="evenodd" d="M5.9126 204.422V183.81L55.7185 155.055V175.667L5.9126 204.422Z" fill="#6580E1"/>
<path fill-rule="evenodd" clip-rule="evenodd" d="M5.9126 183.81L41.1034 167.32L90.9093 138.565L55.7185 155.054L5.9126 183.81Z" fill="#6580E1"/>
<path fill-rule="evenodd" clip-rule="evenodd" d="M24.528 144.942L4 129.851L53.8059 101.095L74.3339 116.186L24.528 144.942Z" fill="#E7F2FF" stroke="#3692FF" stroke-width="3" stroke-linejoin="round"/>
<path fill-rule="evenodd" clip-rule="evenodd" d="M55.2562 189.92L34.3457 199.343L84.1516 170.587L105.062 161.165L55.2562 189.92Z" fill="#6580E1"/>
<path fill-rule="evenodd" clip-rule="evenodd" d="M34.3457 199.343L71.1941 220.617L121 191.862L84.1516 170.587L34.3457 199.343Z" fill="#E7F2FF" stroke="#3692FF" stroke-width="3" stroke-linejoin="round"/>
<path fill-rule="evenodd" clip-rule="evenodd" d="M71.1943 220.617V242.112L121 213.357V191.862L71.1943 220.617Z" fill="#E7F2FF" stroke="#3692FF" stroke-width="3" stroke-linejoin="round"/>
<path d="M15.3477 111.815C18.4077 110.638 21.8928 110.441 25.8029 111.227C29.798 111.963 34.0057 113.607 38.4257 116.159C42.5907 118.563 46.6285 121.533 50.5385 125.066C54.4486 128.599 57.9337 132.575 60.9938 136.992C64.0538 141.408 66.4764 146.144 68.2614 151.199C70.1314 156.303 71.0665 161.554 71.0665 166.952C71.0665 170.682 70.6415 173.823 69.7915 176.375C68.9415 178.829 67.7514 180.89 66.2214 182.558C65.4573 183.467 64.622 184.293 63.7153 185.036L55.2561 189.92C57.2962 188.938 59.2512 187.908 61.1213 186.828L110.927 158.073C112.882 156.944 114.582 155.521 116.027 153.803C117.557 152.134 118.747 150.073 119.597 147.62C120.447 145.068 120.872 141.927 120.872 138.197C120.872 132.799 119.937 127.547 118.067 122.443C116.282 117.389 113.86 112.653 110.8 108.236C107.74 103.819 104.254 99.8438 100.344 96.3104C96.4343 92.777 92.3965 89.808 88.2315 87.4033C83.8114 84.8514 79.6039 83.2073 75.6088 82.4711C71.6987 81.6859 68.2136 81.8822 65.1535 83.06L15.3477 111.815Z" fill="white" stroke="#3692FF" stroke-width="3" stroke-linejoin="round"/>
<path d="M5.91255 204.422V183.81L41.1034 167.32C43.3134 166.142 45.0985 164.67 46.4585 162.903C47.8186 161.137 48.4986 158.683 48.4986 155.542C48.4986 151.812 47.4785 148.23 45.4385 144.794C43.3984 141.261 40.6784 138.513 37.2783 136.55C33.7082 134.488 30.7756 134.268 28.4806 135.887C26.2705 137.457 24.953 140.476 24.528 144.942L4 129.851C4.51001 124.845 5.74254 120.845 7.69759 117.852C9.73764 114.907 12.2877 112.895 15.3478 111.815C18.4078 110.637 21.8929 110.441 25.803 111.226C29.7981 111.962 34.0057 113.607 38.4258 116.158C42.5909 118.563 46.6285 121.532 50.5386 125.066C54.4487 128.599 57.9338 132.574 60.9939 136.991C64.0539 141.408 66.4765 146.144 68.2615 151.199C70.1316 156.303 71.0666 161.554 71.0666 166.952C71.0666 170.682 70.6416 173.823 69.7916 176.375C68.9416 178.828 67.7515 180.89 66.2215 182.558C64.7765 184.276 63.0764 185.699 61.1214 186.828C59.2513 187.908 57.2963 188.938 55.2562 189.92L34.3457 199.342L71.1941 220.617V242.112L5.91255 204.422Z" fill="white" stroke="#3692FF" stroke-width="3" stroke-linejoin="round"/>
<path fill-rule="evenodd" clip-rule="evenodd" d="M118.678 225.079V269.079L161.979 244.079V200.079L118.678 225.079Z" fill="#E7F2FF" stroke="#3692FF" stroke-width="3" stroke-linejoin="round"/>
<path fill-rule="evenodd" clip-rule="evenodd" d="M118.678 179.159V202.519L161.979 177.519V154.159L118.678 179.159Z" fill="#E7F2FF" stroke="#3692FF" stroke-width="3" stroke-linejoin="round"/>
<path fill-rule="evenodd" clip-rule="evenodd" d="M118.678 202.519L156.645 224.439L199.946 199.439L161.979 177.519L118.678 202.519Z" fill="white" stroke="#3692FF" stroke-width="3" stroke-linejoin="round"/>
<path fill-rule="evenodd" clip-rule="evenodd" d="M156.645 224.439V246.999L199.946 221.999V199.439L156.645 224.439Z" fill="#E7F2FF" stroke="#3692FF" stroke-width="3" stroke-linejoin="round"/>
<path fill-rule="evenodd" clip-rule="evenodd" d="M95.2607 142.279L159.832 179.559L203.133 154.559L138.562 117.279L95.2607 142.279Z" fill="white" stroke="#3692FF" stroke-width="3" stroke-linejoin="round"/>
<path fill-rule="evenodd" clip-rule="evenodd" d="M159.832 179.559V202.919L203.133 177.919V154.559L159.832 179.559Z" fill="#E7F2FF" stroke="#3692FF" stroke-width="3" stroke-linejoin="round"/>
<path d="M118.678 179.159V202.519L156.645 224.439V246.999L118.678 225.079V269.079L95.2607 255.559V142.279L159.832 179.559V202.919L118.678 179.159Z" fill="white" stroke="#3692FF" stroke-width="3" stroke-linejoin="round"/>
</svg>
