<svg width="207" height="321" viewBox="0 0 207 321" fill="none" xmlns="http://www.w3.org/2000/svg">
<path d="M23.6162 179.44C24.54 183.706 26.4336 188.106 29.2973 192.64C32.161 197.066 35.8098 200.56 40.2439 203.12C41.9066 204.08 43.5695 204.773 45.2322 205.2C46.9874 205.68 48.5116 205.76 49.8048 205.44L93.1061 180.44C91.8129 180.76 90.2886 180.68 88.5335 180.2C86.8707 179.773 85.2077 179.08 83.5449 178.12C79.111 175.56 75.4622 172.066 72.5986 167.64C69.7349 163.106 67.8412 158.706 66.9175 154.44L23.6162 179.44Z" fill="#E7F2FF" stroke="#3692FF" stroke-width="3" stroke-linejoin="round"/>
<path fill-rule="evenodd" clip-rule="evenodd" d="M59.5039 174.56C62.2752 176.907 64.8155 179.6 67.1249 182.64L67.125 182.64C69.4344 185.573 71.4204 188.693 73.0832 192L73.0832 192C74.746 195.2 76.0392 198.506 76.963 201.92L76.963 201.92C77.8867 205.226 78.3486 208.48 78.3486 211.68C78.3486 217.867 77.2401 222.613 75.0231 225.92L75.0231 225.92C73.6634 228.002 72.0198 229.614 70.0925 230.757L113.394 205.757C115.321 204.614 116.965 203.002 118.324 200.92L118.324 200.92C120.541 197.613 121.65 192.867 121.65 186.68C121.65 183.48 121.188 180.226 120.264 176.92L120.264 176.92C119.34 173.506 118.047 170.2 116.384 167V167C114.722 163.693 112.736 160.573 110.426 157.64L110.426 157.64C108.117 154.6 105.576 151.907 102.805 149.56L59.5039 174.56Z" fill="#E7F2FF"/>
<path d="M67.1249 182.64L66.6581 183.213C67.0018 183.665 67.4525 183.868 67.7399 183.699L67.1249 182.64ZM59.5039 174.56L58.8915 173.499C58.6692 173.628 58.5848 173.955 58.6711 174.354C58.7575 174.753 59.0009 175.161 59.3071 175.42L59.5039 174.56ZM67.125 182.64L67.5706 182.04C67.2287 181.605 66.7909 181.416 66.5101 181.581L67.125 182.64ZM73.0832 192L72.4129 192.246C72.5686 192.556 72.7978 192.821 73.0435 192.976C73.2891 193.131 73.5279 193.16 73.7004 193.058L73.0832 192ZM73.0832 192L73.7408 191.729C73.583 191.425 73.3553 191.167 73.1131 191.018C72.8708 190.868 72.6361 190.841 72.4661 190.942L73.0832 192ZM76.963 201.92L77.8108 202.613C77.844 202.448 77.8316 202.25 77.7751 202.041L76.963 201.92ZM76.963 201.92L76.1151 201.226C76.0812 201.395 76.0949 201.598 76.1547 201.812L76.963 201.92ZM78.3486 211.68L79.2146 212.18V212.18L78.3486 211.68ZM75.0231 225.92L74.2669 224.996C74.0701 225.289 74.143 225.841 74.4426 226.327C74.7422 226.812 75.189 227.102 75.5197 227.026L75.0231 225.92ZM75.0231 225.92L75.7827 226.839C75.976 226.543 75.9007 225.992 75.601 225.509C75.3013 225.026 74.8562 224.738 74.5265 224.814L75.0231 225.92ZM70.0925 230.757L69.476 229.699C69.1409 229.897 69.1436 230.53 69.4822 231.114C69.8207 231.698 70.3674 232.012 70.7048 231.818L70.0925 230.757ZM113.394 205.757L114.006 206.818L114.01 206.815L113.394 205.757ZM118.324 200.92L119.084 201.839C119.277 201.543 119.202 200.992 118.902 200.509C118.603 200.026 118.157 199.738 117.828 199.814L118.324 200.92ZM118.324 200.92L117.568 199.996C117.371 200.289 117.444 200.841 117.744 201.327C118.043 201.812 118.49 202.102 118.821 202.026L118.324 200.92ZM121.65 186.68L122.516 187.18V187.18L121.65 186.68ZM120.264 176.92L119.424 176.192C119.381 176.367 119.392 176.583 119.456 176.812L120.264 176.92ZM120.264 176.92L121.104 177.647C121.147 177.476 121.137 177.265 121.076 177.041L120.264 176.92ZM116.384 167L117.042 166.728C116.806 166.275 116.424 165.939 116.084 165.888C115.744 165.837 115.518 166.081 115.518 166.5L116.384 167ZM116.384 167L115.714 167.246C115.946 167.707 116.331 168.053 116.676 168.11C117.02 168.167 117.25 167.922 117.25 167.5L116.384 167ZM110.426 157.64L110.872 157.04C110.529 156.604 110.09 156.415 109.809 156.582L110.426 157.64ZM110.426 157.64L109.959 158.213C110.304 158.666 110.756 158.869 111.043 158.698L110.426 157.64ZM102.805 149.56L103.002 148.7C102.71 148.453 102.404 148.377 102.193 148.499L102.805 149.56ZM67.5918 182.067C65.1963 178.914 62.5641 176.124 59.7007 173.7L59.3071 175.42C61.9862 177.689 64.4347 180.286 66.6581 183.213L67.5918 182.067ZM66.5101 181.581L66.51 181.581L67.7399 183.699L67.74 183.699L66.5101 181.581ZM73.7535 191.754C72.0259 188.318 69.9633 185.079 67.5706 182.04L66.6795 183.24C68.9056 186.068 70.815 189.068 72.4129 192.246L73.7535 191.754ZM72.4661 190.942L72.466 190.942L73.7004 193.058L73.7004 193.058L72.4661 190.942ZM77.7751 202.041C76.8172 198.502 75.4729 195.062 73.7408 191.729L72.4257 192.271C74.0191 195.337 75.2612 198.511 76.1509 201.798L77.7751 202.041ZM76.1152 201.226L76.1151 201.226L77.8108 202.613L77.8108 202.613L76.1152 201.226ZM76.1547 201.812C77.0374 204.972 77.4826 208.093 77.4826 211.18L79.2146 212.18C79.2146 208.867 78.736 205.481 77.7712 202.027L76.1547 201.812ZM77.4826 211.18C77.4826 217.226 76.4 221.814 74.2669 224.996L75.7793 226.844C78.0802 223.412 79.2146 218.507 79.2146 212.18L77.4826 211.18ZM75.5197 227.026L75.5198 227.026L74.5265 224.814L74.5264 224.814L75.5197 227.026ZM74.2635 225.001C72.9411 227.026 71.3452 228.59 69.476 229.699L70.7089 231.815C72.6944 230.638 74.3856 228.978 75.7827 226.839L74.2635 225.001ZM70.7048 231.818L114.006 206.818L112.781 204.696L69.4801 229.696L70.7048 231.818ZM114.01 206.815C115.996 205.638 117.687 203.978 119.084 201.839L117.565 200.001C116.242 202.026 114.646 203.59 112.777 204.699L114.01 206.815ZM117.828 199.814L117.828 199.814L118.821 202.026L118.821 202.026L117.828 199.814ZM119.081 201.844C121.381 198.412 122.516 193.507 122.516 187.18L120.784 186.18C120.784 192.226 119.701 196.814 117.568 199.996L119.081 201.844ZM122.516 187.18C122.516 183.867 122.037 180.481 121.073 177.027L119.456 176.812C120.339 179.972 120.784 183.093 120.784 186.18L122.516 187.18ZM119.424 176.192L119.424 176.192L121.104 177.647L121.104 177.647L119.424 176.192ZM115.727 167.271C117.32 170.337 118.562 173.511 119.452 176.798L121.076 177.041C120.118 173.502 118.774 170.062 117.042 166.728L115.727 167.271ZM117.25 167.5V167.5L115.518 166.5V166.5L117.25 167.5ZM109.981 158.24C112.207 161.068 114.116 164.068 115.714 167.246L117.055 166.754C115.327 163.318 113.264 160.079 110.872 157.04L109.981 158.24ZM111.043 158.698L111.043 158.698L109.809 156.582L109.809 156.582L111.043 158.698ZM102.608 150.42C105.287 152.689 107.736 155.286 109.959 158.213L110.893 157.067C108.498 153.914 105.865 151.124 103.002 148.7L102.608 150.42ZM60.1163 175.621L103.418 150.621L102.193 148.499L58.8915 173.499L60.1163 175.621Z" fill="#3692FF"/>
<path fill-rule="evenodd" clip-rule="evenodd" d="M2 173.52L23.616 179.44L66.9173 154.44L45.3013 148.52L2 173.52Z" fill="white" stroke="#3692FF" stroke-width="3" stroke-linejoin="round"/>
<path fill-rule="evenodd" clip-rule="evenodd" d="M46.8948 155.44C45.3244 155.493 43.5231 155.147 41.4908 154.4L41.4908 154.4C39.4585 153.547 37.3338 152.48 35.1168 151.2L35.1168 151.2L28.3271 147.28L71.6284 122.28L78.4181 126.2L78.4181 126.2C80.6351 127.48 82.7597 128.547 84.7921 129.4C86.8244 130.147 88.6257 130.493 90.1961 130.44L46.8948 155.44Z" fill="#E7F2FF"/>
<path d="M41.4908 154.4L41.3359 153.327C41.0201 153.211 40.762 153.324 40.6652 153.621L41.4908 154.4ZM46.8948 155.44L47.3 156.558C47.3763 156.555 47.4461 156.536 47.5072 156.501L46.8948 155.44ZM41.4908 154.4L41.6078 155.458C41.9394 155.598 42.2153 155.489 42.3164 155.178L41.4908 154.4ZM35.1168 151.2V150.2C34.7624 149.995 34.4438 150.061 34.3125 150.365L35.1168 151.2ZM35.1168 151.2V152.2C35.4712 152.405 35.7898 152.339 35.9211 152.035L35.1168 151.2ZM28.3271 147.28L27.7148 146.219C27.4671 146.362 27.393 146.75 27.527 147.201C27.6611 147.652 27.9769 148.078 28.3271 148.28V147.28ZM71.6284 122.28V121.28C71.3987 121.147 71.1785 121.126 71.016 121.219L71.6284 122.28ZM78.4181 126.2V127.2C78.7646 127.4 79.0777 127.342 79.2142 127.053L78.4181 126.2ZM78.4181 126.2V125.2C78.0716 125 77.7584 125.058 77.622 125.347L78.4181 126.2ZM84.7921 129.4L84.9091 130.458C84.9218 130.464 84.9344 130.469 84.947 130.473L84.7921 129.4ZM90.1961 130.44L90.8084 131.501C91.1115 131.326 91.1473 130.793 90.8927 130.248C90.6381 129.703 90.1696 129.309 89.7908 129.322L90.1961 130.44ZM41.6457 155.473C43.7515 156.247 45.6396 156.614 47.3 156.558L46.4896 154.322C45.0093 154.372 43.2947 154.046 41.3359 153.327L41.6457 155.473ZM40.6652 153.621L40.6651 153.621L42.3164 155.178L42.3164 155.178L40.6652 153.621ZM41.3738 153.342C39.3832 152.506 37.2978 151.459 35.1168 150.2V152.2C37.3699 153.501 39.5337 154.587 41.6078 155.458L41.3738 153.342ZM34.3125 150.365L34.3124 150.365L35.9211 152.035L35.9212 152.035L34.3125 150.365ZM35.1168 150.2L28.3271 146.28V148.28L35.1168 152.2V150.2ZM28.9395 148.341L72.2408 123.341L71.016 121.219L27.7148 146.219L28.9395 148.341ZM71.6284 123.28L78.4181 127.2V125.2L71.6284 121.28V123.28ZM79.2142 127.053L79.2142 127.053L77.622 125.347L77.6219 125.347L79.2142 127.053ZM78.4181 127.2C80.6711 128.501 82.835 129.587 84.9091 130.458L84.675 128.341C82.6845 127.506 80.5991 126.459 78.4181 125.2V127.2ZM89.7908 129.322C88.3105 129.372 86.5959 129.046 84.6371 128.327L84.947 130.473C87.0528 131.247 88.9408 131.614 90.6013 131.558L89.7908 129.322ZM47.5072 156.501L90.8084 131.501L89.5837 129.379L46.2824 154.379L47.5072 156.501Z" fill="#3692FF"/>
<path d="M28.5049 102.067C32.3847 103.027 36.3569 104.68 40.4214 107.027C44.763 109.534 48.9661 112.6 53.0306 116.227C57.1875 119.907 60.8827 124.014 64.1158 128.547C67.3489 133.08 69.9355 137.934 71.8754 143.107C73.9077 148.227 74.9238 153.507 74.9238 158.947C74.9238 165.24 73.3534 169.667 70.2126 172.227L113.514 147.227C116.655 144.667 118.225 140.24 118.225 133.947C118.225 128.507 117.209 123.227 115.177 118.107C113.237 112.934 110.65 108.08 107.417 103.547C104.184 99.0136 100.489 94.9069 96.3319 91.2269C92.2674 87.6003 88.0643 84.5336 83.7227 82.027C79.6581 79.6803 75.686 78.027 71.8062 77.067C67.9264 76.0003 64.3236 75.7335 60.9981 76.2669C58.9289 76.5741 57.03 77.2418 55.3013 78.2698L12.3414 103.073C12.2268 103.137 12.1131 103.203 12 103.27L12.3414 103.073C13.9778 102.156 15.763 101.554 17.6969 101.267C21.0224 100.734 24.6251 101 28.5049 102.067Z" fill="white"/>
<path d="M12.3414 103.073L55.3013 78.2698C57.03 77.2418 58.9289 76.5741 60.9981 76.2669C64.3236 75.7335 67.9264 76.0003 71.8062 77.067C75.686 78.027 79.6581 79.6803 83.7227 82.027C88.0643 84.5336 92.2674 87.6003 96.3319 91.2269C100.489 94.9069 104.184 99.0136 107.417 103.547C110.65 108.08 113.237 112.934 115.177 118.107C117.209 123.227 118.225 128.507 118.225 133.947C118.225 140.24 116.655 144.667 113.514 147.227L70.2126 172.227C73.3534 169.667 74.9238 165.24 74.9238 158.947C74.9238 153.507 73.9077 148.227 71.8754 143.107C69.9355 137.934 67.3489 133.08 64.1158 128.547C60.8827 124.014 57.1875 119.907 53.0306 116.227C48.9661 112.6 44.763 109.534 40.4214 107.027C36.3569 104.68 32.3847 103.027 28.5049 102.067C24.6251 101 21.0224 100.734 17.6969 101.267C15.763 101.554 13.9778 102.156 12.3414 103.073ZM12.3414 103.073C12.2268 103.137 12.1131 103.203 12 103.27L12.3414 103.073Z" stroke="#3692FF" stroke-width="2"/>
<path d="M78.3488 211.68C78.3488 217.867 77.2403 222.613 75.0233 225.92C72.8986 229.173 70.0811 231.28 66.5709 232.24C63.0606 233.093 59.0884 232.933 54.6543 231.76C50.3127 230.747 45.8786 228.933 41.3522 226.32C36.9181 223.76 32.5765 220.667 28.3272 217.04C24.1703 213.467 20.3366 209.493 16.8264 205.12C13.4084 200.693 10.4062 195.867 7.81969 190.64C5.23316 185.307 3.29326 179.6 2 173.52L23.616 179.44C24.5398 183.707 26.4335 188.107 29.2971 192.64C32.1608 197.067 35.8096 200.56 40.2437 203.12C41.9065 204.08 43.5692 204.773 45.232 205.2C46.9871 205.68 48.5113 205.76 49.8046 205.44C51.1902 205.067 52.2988 204.213 53.1301 202.88C54.0539 201.6 54.5158 199.627 54.5158 196.96C54.5158 194.08 53.9153 191.333 52.7145 188.72C51.6059 186.16 50.0817 183.787 48.1418 181.6C46.2943 179.36 44.1697 177.333 41.7679 175.52C39.3661 173.6 36.9643 171.947 34.5626 170.56L28.3272 166.96V147.28L35.1168 151.2C37.3338 152.48 39.4585 153.547 41.4908 154.4C43.523 155.147 45.3244 155.493 46.8948 155.44C48.5575 155.333 49.8508 154.693 50.7746 153.52C51.7907 152.4 52.2988 150.453 52.2988 147.68C52.2988 143.627 51.0517 139.813 48.5575 136.24C46.0634 132.667 43.1997 129.947 39.9666 128.08C36.641 126.16 33.7312 125.653 31.237 126.56C28.8352 127.413 27.2648 129.547 26.5258 132.96L4.90985 114.72C6.11073 110.613 7.91207 107.493 10.3138 105.36C12.7156 103.12 15.5331 101.76 18.7663 101.28C22.0918 100.747 25.6945 101.013 29.5742 102.08C33.454 103.04 37.4262 104.693 41.4908 107.04C45.8324 109.547 50.0355 112.613 54.1001 116.24C58.257 119.92 61.952 124.027 65.1852 128.56C68.4184 133.093 71.0049 137.947 72.9448 143.12C74.9771 148.24 75.9932 153.52 75.9932 158.96C75.9932 165.253 74.4228 169.68 71.282 172.24C68.2336 174.747 64.3076 175.36 59.5041 174.08V174.56C62.2754 176.907 64.8157 179.6 67.1251 182.64C69.4345 185.573 71.4206 188.693 73.0834 192C74.7461 195.2 76.0394 198.507 76.9632 201.92C77.8869 205.227 78.3488 208.48 78.3488 211.68Z" fill="white" stroke="#3692FF" stroke-width="3" stroke-linejoin="round"/>
<path fill-rule="evenodd" clip-rule="evenodd" d="M120.678 225.079V269.079L163.979 244.079V200.079L120.678 225.079Z" fill="#E7F2FF" stroke="#3692FF" stroke-width="3" stroke-linejoin="round"/>
<path fill-rule="evenodd" clip-rule="evenodd" d="M120.678 179.159V202.519L163.979 177.519V154.159L120.678 179.159Z" fill="#E7F2FF" stroke="#3692FF" stroke-width="3" stroke-linejoin="round"/>
<path fill-rule="evenodd" clip-rule="evenodd" d="M120.678 202.519L158.645 224.439L201.946 199.439L163.979 177.519L120.678 202.519Z" fill="white" stroke="#3692FF" stroke-width="3" stroke-linejoin="round"/>
<path fill-rule="evenodd" clip-rule="evenodd" d="M158.645 224.439V246.999L201.946 221.999V199.439L158.645 224.439Z" fill="#E7F2FF" stroke="#3692FF" stroke-width="3" stroke-linejoin="round"/>
<path fill-rule="evenodd" clip-rule="evenodd" d="M97.2607 142.279L161.832 179.559L205.133 154.559L140.562 117.279L97.2607 142.279Z" fill="white" stroke="#3692FF" stroke-width="3" stroke-linejoin="round"/>
<path fill-rule="evenodd" clip-rule="evenodd" d="M161.832 179.559V202.919L205.133 177.919V154.559L161.832 179.559Z" fill="#E7F2FF" stroke="#3692FF" stroke-width="3" stroke-linejoin="round"/>
<path d="M120.678 179.159V202.519L158.645 224.439V246.999L120.678 225.079V269.079L97.2607 255.559V142.279L161.832 179.559V202.919L120.678 179.159Z" fill="white" stroke="#3692FF" stroke-width="3" stroke-linejoin="round"/>
</svg>
