<svg width="1404" height="973" viewBox="0 0 1404 973" fill="none" xmlns="http://www.w3.org/2000/svg">
<path d="M451.023 726.767L442.781 716.748H405.666L368.538 697.896L350.867 700.844L347.333 687.289V658.403L335.557 650.745L323.181 643.674L311.978 630.118L298.429 626.569L270.742 611.252H255.432L234.214 601.246V616.549L237.748 641.899L227.146 667.836V695.534L230.68 702.605L221.838 733.852V766.847L234.214 798.094L250.124 808.701L237.748 818.721L242.469 843.47L266.035 854.077L271.916 874.717L255.432 910.661L242.469 923.629L264.261 932.475L283.119 927.165L316.699 892.396L386.809 850.541L402.119 875.891L412.735 881.789L492.259 845.832L475.762 814.598L469.881 792.784L475.762 763.311L451.023 743.872V726.767Z" fill="#C0DDFF" stroke="#3692FF" stroke-width="4" stroke-miterlimit="10"/>
<path d="M255.433 910.66L271.917 874.716L266.035 854.076L242.47 843.469L237.749 818.72L250.125 808.7L234.215 798.093L221.839 766.846V733.851L230.681 702.604L227.147 695.533V667.835L237.749 641.898L234.215 616.548V601.245L204.168 587.089L200.047 599.457L186.497 604.767L180.016 610.664L169.414 614.2L157.624 619.496L129.938 614.2H105.786L97.5306 619.496L81.6339 614.2L56.2947 629.516L42.745 633.052L33.9029 654.279L47.4526 685.513L52.7606 723.231L33.9029 747.407L13.8717 756.826L2.68262 768.033V781.589L19.1797 778.053L28.0218 795.731L67.4838 801.629L97.5306 814.597H112.854L129.938 832.275L148.796 835.224L167.053 829.914L186.497 862.922V875.89L210.649 892.395L229.507 927.164L204.168 945.442L214.184 964.895L224.786 969.018L256.607 954.862L264.262 932.474L242.47 923.628L255.433 910.66Z" fill="white" stroke="#3692FF" stroke-width="4" stroke-miterlimit="10"/>
<path d="M944.135 720.296L911.154 691.411V648.969L904.673 633.653L884.041 618.323L888.763 601.819L878.747 564.688L888.763 548.184L901.725 514.589L911.154 503.982L935.306 495.136L940.014 487.478L935.306 479.232L924.704 426.771L953.564 393.176L970.102 385.286L961.819 376.085V356.632L931.186 353.097L925.291 368.413L911.741 353.097L902.899 345.438L907.607 291.79L925.291 288.254L934.119 271.764L919.983 267.628V260.556H939.427L952.39 251.123L934.119 235.807L931.186 205.16L919.983 192.192V170.964L931.186 161.545L919.983 156.822V150.338L911.741 147.389L878.16 103.774H870.492V94.9418L857.529 81.3863L854.595 56.0363V36.5836L842.219 17.7315L824.548 2.40137H804.517L778.591 14.1959L749.718 28.3384H736.168L719.671 41.8938L705.534 71.9534L695.519 84.3213V94.9418H684.917L691.398 103.774L684.917 112.033L688.451 132.66L679.609 156.822L724.392 224.012L728.513 241.691L713.79 260.556L705.534 267.628L708.482 279.422L695.519 284.719L682.556 296.513L665.472 291.79L654.87 302.41L618.341 284.719L570.624 267.628H553.54L516.412 279.422L504.636 291.79L480.484 288.254L399.186 345.438L405.067 356.632L402.72 385.504L391.517 403.196H375.02L371.486 412.629L348.507 429.133L335.558 458.592L322.595 469.799L311.979 494.549L291.948 505.156L267.209 532.267L256.607 546.423H229.507L210.649 557.617H204.168V587.089L234.215 601.245V601.136V601.245L255.433 611.252H270.743L298.429 626.568L311.979 630.117L323.182 643.673L335.558 650.744L347.334 658.402V687.288L350.868 700.843L368.538 697.895L405.667 716.747H442.782L451.024 726.767V743.871L475.763 763.311L505.809 814.598L634.252 752.117L691.398 859.974L702.587 855.264L729.1 867.045L781.538 875.891L804.517 881.788L719.671 699.656L695.519 708.502L691.398 690.223L665.472 685.513L691.398 678.442L702.587 685.513L713.79 671.958L749.718 646.608L781.538 661.351L788.02 678.442H804.517V685.513L790.967 696.12L848.113 781.589L869.905 795.732L897.004 845.831L925.291 855.264L966.417 767.324L958.872 733.251L944.135 720.296Z" fill="white" stroke="#3692FF" stroke-width="4" stroke-miterlimit="10"/>
<path d="M1388.94 638.362L1365.38 641.31L1357.13 638.362H1330.03L1312.35 625.393L1301.75 630.117L1295.87 615.373L1307.06 585.901L1321.19 575.881L1330.03 540.525L1352.41 536.388L1357.13 540.525L1365.38 501.032L1377.17 492.186L1365.38 460.366L1357.13 434.429L1336.52 416.164L1326.5 398.472L1312.35 403.195L1299.39 396.711L1269.35 412.628L1256.98 416.164L1245.79 406.731L1223.4 403.195L1199.83 368.412L1186.87 362.529L1178.61 376.084H1157.41L1133.26 368.412L1118.53 353.096L1113.23 332.469L1099.68 311.829L1096.73 302.41H1087.3L1076.11 291.789L1063.15 298.874L1056.08 305.345V308.293L1042.53 311.829V325.384L1017.19 332.469L1011.3 345.438L993.038 353.096V368.412L972.421 387.865L970.101 385.285L953.563 393.175L924.703 426.771L935.305 479.232L940.013 487.477L935.305 495.135L911.154 503.981L901.725 514.588L888.762 548.183L878.746 564.687L888.762 601.818L884.04 618.322L904.672 633.652L911.154 648.969V691.41L944.134 720.295L958.871 733.25L966.417 767.323L968.3 763.31L979.489 723.23L968.3 718.521V705.552L961.818 699.655L975.368 678.441L1049.01 638.362L1076.11 633.052L1110.28 620.684L1118.53 625.393V638.362L1140.91 664.299H1168.61L1178.61 661.35L1186.87 664.299L1173.32 641.31L1190.99 625.393L1237.53 615.373L1254.03 625.393L1295.87 671.957L1301.75 712.624L1295.87 729.715L1289.39 735.612L1295.87 739.734L1317.07 735.612L1321.19 723.23L1346.53 712.624H1357.13L1369.5 708.501L1388.94 705.552L1401.32 661.35V646.607L1388.94 638.362Z" fill="#C0DDFF" stroke="#3692FF" stroke-width="4" stroke-miterlimit="10"/>

<!-- 灯塔图书馆 -->
<circle cx="338.684" cy="882.401" r="13.5" fill="white" stroke="#3692FF" stroke-width="3"/>
<!-- 春天海图书馆 -->
<circle cx="696.684" cy="630.401" r="13.5" fill="white" stroke="#3692FF" stroke-width="3"/>
<!-- 悦海图书馆 -->
<circle cx="974.684" cy="718.401" r="13.5" fill="white" stroke="#3692FF" stroke-width="3"/>
<!-- 听海图书馆 -->
<circle cx="1036.68" cy="634.401" r="13.5" fill="white" stroke="#3692FF" stroke-width="3"/>
<!-- 观海图书馆 -->
<circle cx="1178.68" cy="644.401" r="13.5" fill="white" stroke="#3692FF" stroke-width="3"/>
<!-- 望海图书馆 -->
<circle cx="1323.68" cy="692.401" r="13.5" fill="white" stroke="#3692FF" stroke-width="3"/>
<!-- 栖息图书馆 -->
<circle cx="1030.68" cy="598.401" r="13.5" fill="white" stroke="#3692FF" stroke-width="3"/>
<!-- 遇见图书馆 -->
<circle cx="608.684" cy="578.401" r="13.5" fill="white" stroke="#3692FF" stroke-width="3"/>
<!-- 中英街图书馆 -->
<circle cx="243.684" cy="935.401" r="13.5" fill="white" stroke="#3692FF" stroke-width="3"/>
<!-- 邂逅图书馆 -->
<circle cx="258.684" cy="912.401" r="13.5" fill="white" stroke="#3692FF" stroke-width="3"/>


<!-- 盐田街道图书馆 -->
<circle cx="525.684" cy="610.401" r="15" fill="#3692FF"/>
<!-- 梅沙街道图书馆 -->
<circle cx="1063.68" cy="571.401" r="15" fill="#3692FF"/>
<!-- 沙头角街道图书馆 -->
<circle cx="208.684" cy="863.401" r="15" fill="#3692FF"/>
<!-- 中英街街道图书馆 -->
<circle cx="228.684" cy="957.401" r="15" fill="#3692FF"/>
<!-- 海山街道图书馆 -->
<circle cx="298.684" cy="892.401" r="15" fill="#3692FF"/>


<!-- 盐田图书馆 -->
<circle cx="318.684" cy="836.401" r="23.5" fill="#FFE791" stroke="#3692FF" stroke-width="3"/>
<circle cx="318.684" cy="836.401" r="15" fill="#3692FF"/>

<!-- <circle cx="318.684" cy="836.401" r="36" fill="#FB461E" /> -->

</svg>
