<svg width="120" height="82" viewBox="0 0 120 82" fill="none" xmlns="http://www.w3.org/2000/svg">
<g clip-path="url(#clip0_181_3979)">
<path d="M90.9997 65.8363C100.663 60.2371 105.496 52.8987 105.497 45.5601V50.531C105.498 57.8715 100.666 65.2122 90.9997 70.8127C71.6697 82.0125 40.3294 82.0131 20.9994 70.8134C11.3356 65.2142 6.50315 57.8758 6.50195 50.5371V45.5607C6.50315 52.8993 11.3356 60.2377 20.9994 65.8369C40.3294 77.0367 71.6697 77.0361 90.9997 65.8363Z" fill="#E7F2FF"/>
<path d="M90.9997 65.8363L91.2503 66.2689L90.9997 65.8363ZM105.497 45.5601H105.997C105.997 45.2839 105.773 45.0601 105.497 45.0601C105.221 45.06 104.997 45.2839 104.997 45.56L105.497 45.5601ZM105.497 50.531H104.997V50.5311L105.497 50.531ZM90.9997 70.8127L90.749 70.3801L90.9997 70.8127ZM20.9994 70.8134L20.7488 71.246L20.9994 70.8134ZM6.50195 50.5371H6.00195V50.5372L6.50195 50.5371ZM6.50195 45.5607L7.00195 45.5606C7.00191 45.2845 6.77804 45.0607 6.50191 45.0607C6.22579 45.0607 6.00195 45.2846 6.00195 45.5607H6.50195ZM20.9994 65.8369L20.7488 66.2696L20.9994 65.8369ZM91.2503 66.2689C101.006 60.6167 105.996 53.1394 105.997 45.5601L104.997 45.56C104.996 52.658 100.321 59.8575 90.749 65.4037L91.2503 66.2689ZM104.997 45.5601V50.531H105.997V45.5601H104.997ZM104.997 50.5311C104.998 57.6308 100.324 64.8325 90.749 70.3801L91.2503 71.2454C101.008 65.5918 105.998 58.1122 105.997 50.531L104.997 50.5311ZM90.749 70.3801C81.178 75.9255 68.6023 78.7127 55.9995 78.7129C43.3968 78.713 30.821 75.9261 21.2501 70.3807L20.7488 71.246C30.5078 76.9004 43.2672 79.713 55.9995 79.7129C68.7319 79.7127 81.4913 76.8997 91.2503 71.2454L90.749 70.3801ZM21.2501 70.3807C11.6778 64.8345 7.00311 57.635 7.00195 50.537L6.00195 50.5372C6.00319 58.1165 10.9935 65.5938 20.7488 71.246L21.2501 70.3807ZM7.00195 50.5371V45.5607H6.00195V50.5371H7.00195ZM6.00195 45.5608C6.00319 53.1401 10.9935 60.6174 20.7488 66.2696L21.2501 65.4043C11.6778 59.8581 7.00311 52.6586 7.00195 45.5606L6.00195 45.5608ZM20.7488 66.2696C30.5078 71.9239 43.2672 74.7366 55.9995 74.7364C68.7319 74.7363 81.4913 71.9233 91.2503 66.2689L90.749 65.4037C81.178 70.9491 68.6023 73.7363 55.9995 73.7364C43.3968 73.7366 30.821 70.9497 21.2501 65.4043L20.7488 66.2696Z" fill="#3692FF"/>
<circle cx="40.4504" cy="40.4504" r="40.4504" transform="matrix(0.865257 -0.501329 0.865257 0.501329 -14 45.5581)" fill="white" stroke="#3692FF"/>
<path d="M96.8045 37.7378V49.1115L81.2715 64.0354V45.3139L96.8045 37.7378Z" fill="#88BFFF" stroke="#3692FF" stroke-linecap="round" stroke-linejoin="round"/>
<path d="M81.404 49.0831L17.7778 26.1357L17.6445 41.0882L81.2708 64.0355L81.404 33.9784" fill="white"/>
<path d="M81.404 49.0831L17.7778 26.1357L17.6445 41.0882L81.2708 64.0355L81.404 33.9784" stroke="#3692FF" stroke-linecap="round" stroke-linejoin="round"/>
<path d="M56.8294 13.7817L70.7824 38.7944L41.9531 44.8858L56.8294 13.7817Z" fill="#88BFFF" stroke="#3692FF" stroke-linecap="round" stroke-linejoin="round"/>
<path d="M62.1875 16.0088L86.7243 26.1357L75.2173 58.0488L64.605 46.38L62.1875 16.0088Z" fill="#88BFFF" stroke="#3692FF" stroke-linecap="round" stroke-linejoin="round"/>
<path d="M86.7257 26.1357L75.2188 58.0488L99.8031 37.7379L86.7257 26.1357Z" fill="#E7F2FF" stroke="#3692FF" stroke-linecap="round" stroke-linejoin="round"/>
<path d="M62.1879 16.0085C62.1879 16.0085 42.5432 44.2192 41.9531 44.8759L86.7152 26.1259L62.1879 15.999V16.0085Z" fill="white" stroke="#3692FF" stroke-linecap="round" stroke-linejoin="round"/>
<path d="M13.457 32.5697C13.6474 30.9326 33.3396 0.95166 33.3396 0.95166L56.8295 13.7816L41.9627 44.8857L13.4665 32.5792L13.457 32.5697Z" fill="white" stroke="#3692FF" stroke-linecap="round" stroke-linejoin="round"/>
<path d="M86.7247 26.1357L64.6054 46.38L41.9531 44.8857L86.7247 26.1357Z" fill="#E7F2FF" stroke="#3692FF" stroke-linecap="round" stroke-linejoin="round"/>
<path d="M56.8297 13.7816L33.3398 0.95166L41.9534 44.8857L56.8297 13.7816Z" fill="#E7F2FF" stroke="#3692FF" stroke-linecap="round" stroke-linejoin="round"/>
</g>
<defs>
<clipPath id="clip0_181_3979">
<rect width="120" height="81.4911" fill="white"/>
</clipPath>
</defs>
</svg>
