<svg width="68" height="95" viewBox="0 0 68 95" fill="none" xmlns="http://www.w3.org/2000/svg">
<path fill-rule="evenodd" clip-rule="evenodd" d="M61.6558 41.6356C61.4314 41.4877 61.1996 41.3521 60.961 41.2291L61.6558 41.6356ZM60.961 41.2291L46.6558 32.8602C43.7376 30.9379 39.595 31.095 35 33.7832L50 42.5586C54.2416 40.0772 58.0976 39.7524 60.961 41.2291ZM50 42.5588L33 52.5042C24.1635 57.6738 17 70.2463 17 80.5855V92.8711L2 84.0957V71.8101C2 61.4709 9.16345 48.8984 18 43.7288L35 33.7834L50 42.5588Z" fill="white"/>
<path d="M61.6558 41.6356L60.8984 42.9303C61.6 43.3408 62.501 43.1176 62.93 42.4271C63.3589 41.7366 63.1598 40.8301 62.481 40.3829L61.6558 41.6356ZM46.6558 32.8602L45.8307 34.1128C45.8529 34.1274 45.8755 34.1415 45.8984 34.1549L46.6558 32.8602ZM35 33.7832L34.2426 32.4885C33.7827 32.7576 33.5 33.2504 33.5 33.7832C33.5 34.316 33.7827 34.8089 34.2426 35.0779L35 33.7832ZM50 42.5586L49.2426 43.8533C49.7104 44.1271 50.2896 44.1271 50.7575 43.8533L50 42.5586ZM33 52.5042L33.7575 53.7989L33.7575 53.7989L33 52.5042ZM50 42.5588L50.7575 43.8535C51.2174 43.5844 51.5 43.0916 51.5 42.5588C51.5 42.0259 51.2174 41.5331 50.7575 41.2641L50 42.5588ZM17 80.5855H18.5H17ZM17 92.8711L16.2426 94.1658C16.7064 94.4372 17.2801 94.4397 17.7463 94.1723C18.2125 93.9049 18.5 93.4085 18.5 92.8711H17ZM2 84.0957H0.5C0.5 84.6285 0.782655 85.1214 1.24256 85.3904L2 84.0957ZM18 43.7288L18.7575 45.0235H18.7575L18 43.7288ZM35 33.7834L35.7575 32.4886C35.2896 32.2149 34.7104 32.2149 34.2426 32.4886L35 33.7834ZM62.481 40.3829C62.2121 40.2058 61.9345 40.0434 61.6485 39.8959L60.2735 42.5622C60.4648 42.6609 60.6506 42.7696 60.8307 42.8882L62.481 40.3829ZM60.2036 42.5238L60.8984 42.9303L62.4133 40.3409L61.7185 39.9344L60.2036 42.5238ZM45.8984 34.1549L60.2036 42.5238L61.7185 39.9344L47.4133 31.5654L45.8984 34.1549ZM35.7575 35.0779C40.067 32.5567 43.561 32.6177 45.8307 34.1128L47.481 31.6075C43.9142 29.258 39.123 29.6333 34.2426 32.4885L35.7575 35.0779ZM50.7575 41.2639L35.7575 32.4885L34.2426 35.0779L49.2426 43.8533L50.7575 41.2639ZM61.6485 39.8959C58.1705 38.1023 53.7482 38.628 49.2426 41.2639L50.7575 43.8533C54.7349 41.5264 58.0248 41.4026 60.2735 42.5622L61.6485 39.8959ZM33.7575 53.7989L50.7575 43.8535L49.2426 41.2641L32.2426 51.2095L33.7575 53.7989ZM18.5 80.5855C18.5 75.7367 20.1894 70.2634 22.9896 65.3489C25.7902 60.4335 29.6213 56.2187 33.7575 53.7989L32.2426 51.2095C27.5422 53.9594 23.3732 58.6156 20.383 63.8637C17.3923 69.1126 15.5 75.0951 15.5 80.5855H18.5ZM18.5 92.8711V80.5855H15.5V92.8711H18.5ZM1.24256 85.3904L16.2426 94.1658L17.7574 91.5764L2.75744 82.801L1.24256 85.3904ZM0.5 71.8101V84.0957H3.5V71.8101H0.5ZM17.2426 42.4341C12.5422 45.184 8.37323 49.8402 5.383 55.0883C2.39229 60.3372 0.5 66.3197 0.5 71.8101H3.5C3.5 66.9613 5.18943 61.4879 7.98959 56.5734C10.7902 51.6581 14.6213 47.4433 18.7575 45.0235L17.2426 42.4341ZM34.2426 32.4886L17.2426 42.4341L18.7575 45.0235L35.7575 35.0781L34.2426 32.4886ZM50.7575 41.2641L35.7575 32.4886L34.2426 35.0781L49.2426 43.8535L50.7575 41.2641Z" fill="#3692FF"/>
<path d="M33 52.5042C24.1634 57.6739 17 70.2463 17 80.5855V92.8711L66 64.2048V51.9192C66 41.58 58.8366 37.3891 50 42.5588L33 52.5042Z" fill="#FFE791" stroke="#3692FF" stroke-width="3" stroke-linejoin="round"/>
<path fill-rule="evenodd" clip-rule="evenodd" d="M53.2457 11.4759C50.5612 10.0916 46.9462 10.3961 42.9697 12.7224C34.6855 17.5689 27.9697 29.3556 27.9697 39.0486C27.9697 43.7012 29.517 47.0258 32.0424 48.6894L17.6938 40.295C14.7857 38.7953 12.9697 35.3136 12.9697 30.2732C12.9697 20.5802 19.6855 8.79348 27.9697 3.94697L27.9697 3.94697C31.9462 1.62065 35.5612 1.31618 38.2457 2.70054L53.2457 11.4759ZM32.0424 48.6894L32.6938 49.0704C32.4701 48.9551 32.2529 48.828 32.0424 48.6894Z" fill="white"/>
<path d="M42.9697 12.7224L43.7272 14.0171L43.7272 14.0171L42.9697 12.7224ZM53.2457 11.4759L52.5582 12.8091C53.2806 13.1817 54.1684 12.911 54.5601 12.1987C54.9517 11.4864 54.7047 10.5917 54.0031 10.1812L53.2457 11.4759ZM27.9697 39.0486H29.4697H27.9697ZM17.6938 40.295L18.4512 39.0003C18.4283 38.9869 18.405 38.9741 18.3813 38.9619L17.6938 40.295ZM27.9697 3.94697L29.1587 3.0324C28.6981 2.4337 27.8643 2.27084 27.2123 2.65226L27.9697 3.94697ZM27.9697 3.94697L26.7808 4.86154C27.2413 5.46024 28.0752 5.62311 28.7272 5.24169L27.9697 3.94697ZM38.2457 2.70054L39.0031 1.40582C38.9801 1.39239 38.9568 1.37957 38.9332 1.36737L38.2457 2.70054ZM32.6938 49.0704L32.0063 50.4036C32.7288 50.7762 33.6165 50.5055 34.0082 49.7932C34.3999 49.0809 34.1529 48.1862 33.4512 47.7757L32.6938 49.0704ZM43.7272 14.0171C47.4396 11.8453 50.4884 11.7417 52.5582 12.8091L53.9332 10.1428C50.6341 8.44144 46.4528 8.94686 42.2123 11.4277L43.7272 14.0171ZM42.2123 11.4277C37.7881 14.016 33.8691 18.395 31.0598 23.3255C28.2501 28.2568 26.4697 33.8813 26.4697 39.0486H29.4697C29.4697 34.5229 31.0472 29.4075 33.6664 24.8106C36.2861 20.2129 39.8671 16.2753 43.7272 14.0171L42.2123 11.4277ZM26.4697 39.0486C26.4697 43.9972 28.122 47.9031 31.2173 49.942L32.8676 47.4367C30.912 46.1486 29.4697 43.4052 29.4697 39.0486H26.4697ZM32.7999 47.3946L18.4512 39.0003L16.9364 41.5897L31.285 49.9841L32.7999 47.3946ZM18.3813 38.9619C16.1565 37.8145 14.4697 34.9952 14.4697 30.2732H11.4697C11.4697 35.6319 13.4148 39.7761 17.0063 41.6282L18.3813 38.9619ZM14.4697 30.2732C14.4697 25.7475 16.0472 20.6321 18.6664 16.0352C21.2861 11.4375 24.8671 7.4999 28.7272 5.24168L27.2123 2.65226C22.7881 5.24054 18.8691 9.61956 16.0598 14.5501C13.2501 19.4814 11.4697 25.1058 11.4697 30.2732H14.4697ZM26.7808 4.86153L26.7808 4.86154L29.1587 3.03241L29.1587 3.0324L26.7808 4.86153ZM38.9332 1.36737C35.6341 -0.333966 31.4528 0.171453 27.2123 2.65226L28.7272 5.24169C32.4396 3.06985 35.4884 2.96632 37.5582 4.0337L38.9332 1.36737ZM54.0031 10.1812L39.0031 1.40582L37.4882 3.99525L52.4882 12.7707L54.0031 10.1812ZM31.285 49.9841L31.9364 50.3652L33.4512 47.7757L32.7999 47.3946L31.285 49.9841ZM33.3813 47.7373C33.2049 47.6463 33.0336 47.5461 32.8676 47.4367L31.2173 49.942C31.4721 50.1099 31.7353 50.2638 32.0063 50.4036L33.3813 47.7373Z" fill="#3692FF"/>
<ellipse cx="17.3784" cy="17.5508" rx="17.3784" ry="17.5508" transform="matrix(0.863142 -0.504961 0 1 27.9697 21.4978)" fill="#FFE791" stroke="#3692FF" stroke-width="3" stroke-linejoin="round"/>
</svg>
