<svg width="244" height="220" viewBox="0 0 244 220" fill="none" xmlns="http://www.w3.org/2000/svg">
<path d="M235 184.989C259.16 170.961 271.241 152.576 271.244 134.189V146.644C271.247 165.034 259.166 183.426 235 197.457C186.675 225.517 108.324 225.519 59.9995 197.459C35.8401 183.431 23.7589 165.045 23.7559 146.659V134.191C23.7589 152.577 35.8401 170.963 59.9995 184.991C108.324 213.051 186.675 213.049 235 184.989Z" fill="#E7F2FF"/>
<path d="M235 184.989L235.753 186.287L235 184.989ZM271.244 134.189H272.744C272.744 133.361 272.072 132.69 271.244 132.689C270.416 132.689 269.744 133.361 269.744 134.189L271.244 134.189ZM271.244 146.644H269.744V146.644L271.244 146.644ZM235 197.457L234.247 196.16L235 197.457ZM59.9995 197.459L59.2463 198.756L59.9995 197.459ZM23.7559 146.659H22.2559V146.659L23.7559 146.659ZM23.7559 134.191L25.2559 134.191C25.2557 133.362 24.5841 132.691 23.7557 132.691C22.9274 132.691 22.2559 133.363 22.2559 134.191H23.7559ZM59.9995 184.991L59.2463 186.288L59.9995 184.991ZM235.753 186.287C260.188 172.099 272.741 153.296 272.744 134.19L269.744 134.189C269.741 151.855 258.131 169.824 234.247 183.692L235.753 186.287ZM269.744 134.189V146.644H272.744V134.189H269.744ZM269.744 146.644C269.747 164.314 258.137 182.288 234.247 196.16L235.753 198.754C260.194 184.563 272.747 165.755 272.744 146.643L269.744 146.644ZM234.247 196.16C210.367 210.026 178.974 217.002 147.5 217.003C116.026 217.003 84.6328 210.028 60.7528 196.162L59.2463 198.756C83.6912 212.95 115.636 220.003 147.5 220.003C179.364 220.002 211.309 212.948 235.753 198.754L234.247 196.16ZM60.7528 196.162C36.8684 182.293 25.2587 164.324 25.2559 146.659L22.2559 146.659C22.259 165.766 34.8118 184.568 59.2463 198.756L60.7528 196.162ZM25.2559 146.659V134.191H22.2559V146.659H25.2559ZM22.2559 134.191C22.259 153.298 34.8118 172.1 59.2463 186.288L60.7528 183.694C36.8684 169.825 25.2587 151.857 25.2559 134.191L22.2559 134.191ZM59.2463 186.288C83.6912 200.482 115.636 207.535 147.5 207.535C179.364 207.535 211.309 200.48 235.753 186.287L234.247 183.692C210.367 197.558 178.974 204.535 147.5 204.535C116.026 204.535 84.6328 197.56 60.7528 183.694L59.2463 186.288Z" fill="#3692FF"/>
<circle cx="101.181" cy="101.181" r="101.181" transform="matrix(0.864788 -0.502137 0.864788 0.502138 -27.5 134.184)" fill="white" stroke="#3692FF" stroke-width="3"/>
<path d="M235.303 133.512V82.4102L202.205 112.933V164.058L235.303 133.512Z" fill="white" stroke="#3692FF" stroke-width="3" stroke-linecap="round" stroke-linejoin="round"/>
<path d="M202.205 164.058V112.933L108.312 79.7637V130.865L202.205 164.058Z" fill="white" stroke="#3692FF" stroke-width="3" stroke-linecap="round" stroke-linejoin="round"/>
<path d="M137.055 102.155L123.207 97.2188V136.206L137.055 141.143V102.155Z" fill="#C0DDFF" stroke="#3692FF" stroke-width="3" stroke-linecap="round" stroke-linejoin="round"/>
<path d="M157.567 109.452L137.057 102.155V141.143L157.567 148.44V109.452Z" fill="#C0DDFF" stroke="#3692FF" stroke-width="3" stroke-linecap="round" stroke-linejoin="round"/>
<path d="M186.36 134.585L181.268 139.283V182.706L186.36 178.008V134.585Z" fill="white" stroke="#3692FF" stroke-width="3" stroke-linecap="round" stroke-linejoin="round"/>
<path d="M152.547 122.567L147.455 127.265V170.664L152.547 165.99V122.567Z" fill="white" stroke="#3692FF" stroke-width="3" stroke-linecap="round" stroke-linejoin="round"/>
<path d="M169.726 128.672L164.658 133.369V176.793L169.726 172.095V128.672Z" fill="white" stroke="#3692FF" stroke-width="3" stroke-linecap="round" stroke-linejoin="round"/>
<path d="M102.34 104.683L97.248 109.38V152.803L102.34 148.106V104.683Z" fill="white" stroke="#3692FF" stroke-width="3" stroke-linecap="round" stroke-linejoin="round"/>
<path d="M68.5291 92.6406L63.4609 97.3382V140.761L68.5291 136.064V92.6406Z" fill="white" stroke="#3692FF" stroke-width="3" stroke-linecap="round" stroke-linejoin="round"/>
<path d="M85.7326 98.7686L80.6406 103.466V146.889L85.7326 142.192V98.7686Z" fill="white" stroke="#3692FF" stroke-width="3" stroke-linecap="round" stroke-linejoin="round"/>
<path d="M56.4648 138.281L63.0321 140.618V97.7675L56.4648 95.4307V138.281Z" fill="white" stroke="#3692FF" stroke-width="3" stroke-linecap="round" stroke-linejoin="round"/>
<path d="M73.0742 144.195L80.1412 146.699V103.849L73.0742 101.345V144.195Z" fill="white" stroke="#3692FF" stroke-width="3" stroke-linecap="round" stroke-linejoin="round"/>
<path d="M174.699 137.519V180.369L181.266 182.706V139.855L174.699 137.519Z" fill="white" stroke="#3692FF" stroke-width="3" stroke-linecap="round" stroke-linejoin="round"/>
<path d="M157.566 174.289L164.657 176.792V133.942L157.566 131.414V174.289Z" fill="white" stroke="#3692FF" stroke-width="3" stroke-linecap="round" stroke-linejoin="round"/>
<path d="M90.252 150.324L97.2475 152.804V116.558L140.458 131.939V168.184L147.454 170.664V127.813L90.252 107.449V150.324Z" fill="white" stroke="#3692FF" stroke-width="3" stroke-linecap="round" stroke-linejoin="round"/>
<path d="M249.605 84.5806L109.122 34.5762L89.5872 52.532L89.5634 52.5082L39.7617 98.3396L180.244 148.368L199.755 130.412H199.779L249.605 84.5806Z" fill="white" stroke="#3692FF" stroke-width="3" stroke-linecap="round" stroke-linejoin="round"/>
<path d="M193.449 116.63L90.7285 80.0502V32.9072L193.449 69.4866V116.63Z" fill="white" stroke="#3692FF" stroke-width="3" stroke-linecap="round" stroke-linejoin="round"/>
<path d="M90.7285 32.9073L123.827 2.38477L226.547 38.9641L193.449 69.4866L90.7285 32.9073Z" fill="white" stroke="#3692FF" stroke-width="3" stroke-linecap="round" stroke-linejoin="round"/>
<path d="M226.547 86.1068V38.9639L193.449 69.4864V116.629L226.547 86.1068Z" fill="white" stroke="#3692FF" stroke-width="3" stroke-linecap="round" stroke-linejoin="round"/>
<path d="M103.793 79.1683L95.9648 76.4022V42.7559L103.793 45.5458V79.1683Z" fill="#C0DDFF" stroke="#3692FF" stroke-width="3" stroke-linecap="round" stroke-linejoin="round"/>
<path d="M112.859 82.4114L103.793 79.1684V45.5459L112.859 48.7651V82.4114Z" fill="white" stroke="#3692FF" stroke-width="3" stroke-linecap="round" stroke-linejoin="round"/>
<path d="M120.688 85.2009L112.859 82.411V48.7646L120.688 51.5546V85.2009Z" fill="#C0DDFF" stroke="#3692FF" stroke-width="3" stroke-linecap="round" stroke-linejoin="round"/>
<path d="M129.729 88.4202L120.688 85.201V51.5547L129.729 54.7739V88.4202Z" fill="white" stroke="#3692FF" stroke-width="3" stroke-linecap="round" stroke-linejoin="round"/>
<path d="M137.557 91.2107L129.729 88.4207V54.7744L137.557 57.5644V91.2107Z" fill="#C0DDFF" stroke="#3692FF" stroke-width="3" stroke-linecap="round" stroke-linejoin="round"/>
<path d="M146.622 94.4299L137.557 91.2108V57.5645L146.622 60.7836V94.4299Z" fill="white" stroke="#3692FF" stroke-width="3" stroke-linecap="round" stroke-linejoin="round"/>
<path d="M154.451 97.2195L146.623 94.4295V60.7832L154.451 63.5732V97.2195Z" fill="#C0DDFF" stroke="#3692FF" stroke-width="3" stroke-linecap="round" stroke-linejoin="round"/>
<path d="M163.517 100.439L154.451 97.2195V63.5732L163.517 66.7924V100.439Z" fill="white" stroke="#3692FF" stroke-width="3" stroke-linecap="round" stroke-linejoin="round"/>
<path d="M171.346 103.228L163.518 100.438V66.792L171.346 69.5819V103.228Z" fill="#C0DDFF" stroke="#3692FF" stroke-width="3" stroke-linecap="round" stroke-linejoin="round"/>
<path d="M180.411 106.447L171.346 103.228V69.582L180.411 72.825V106.447Z" fill="white" stroke="#3692FF" stroke-width="3" stroke-linecap="round" stroke-linejoin="round"/>
<path d="M188.217 109.238L180.412 106.448V72.8252L188.217 75.5913V109.238Z" fill="#C0DDFF" stroke="#3692FF" stroke-width="3" stroke-linecap="round" stroke-linejoin="round"/>
</svg>
