<svg width="73" height="100" viewBox="0 0 73 100" fill="none" xmlns="http://www.w3.org/2000/svg">
<rect width="60" height="60" rx="8" transform="matrix(0.866025 -0.5 0 1 19.0049 39.4116)" fill="#FFE791" stroke="#3692FF" stroke-width="3" stroke-linejoin="round"/>
<path fill-rule="evenodd" clip-rule="evenodd" d="M68.9373 12.9263C67.5844 12.1452 65.8114 12.3879 64.0383 13.4115L64.0384 13.4116L25.9333 35.4116C22.1069 37.6208 19.0051 42.9933 19.0051 47.4116L19.0051 91.4116C19.0051 93.459 19.6815 95.1159 21.0343 95.8969L3.71379 85.8969C2.36098 85.1159 1.68457 83.459 1.68457 81.4116V37.4116C1.68457 32.9933 4.78643 27.6208 8.61277 25.4116H8.61279L46.7179 3.41162L46.7178 3.41154C48.4909 2.38785 50.2639 2.14521 51.6168 2.92626L68.9373 12.9263Z" fill="white"/>
<path d="M64.0383 13.4115L63.2883 12.1125C62.8269 12.3789 62.5414 12.8701 62.5383 13.4029C62.5352 13.9357 62.815 14.4301 63.2733 14.7018L64.0383 13.4115ZM68.1873 14.2253C68.9047 14.6395 69.8221 14.3937 70.2363 13.6763C70.6505 12.9588 70.4047 12.0414 69.6873 11.6272L68.1873 14.2253ZM64.0384 13.4116L64.7884 14.7107C65.2498 14.4443 65.5353 13.9531 65.5384 13.4203C65.5415 12.8875 65.2617 12.393 64.8034 12.1213L64.0384 13.4116ZM25.9333 35.4116L26.6833 36.7107L26.6833 36.7107L25.9333 35.4116ZM19.0051 47.4116H20.5051H19.0051ZM19.0051 91.4116H17.5051H19.0051ZM20.2843 97.1959C21.0017 97.6102 21.9191 97.3643 22.3333 96.6469C22.7476 95.9295 22.5017 95.0121 21.7843 94.5979L20.2843 97.1959ZM3.71379 85.8969L4.46379 84.5979H4.46379L3.71379 85.8969ZM8.61277 25.4116V23.9116C8.34947 23.9116 8.0908 23.9809 7.86277 24.1126L8.61277 25.4116ZM8.61279 25.4116V26.9116C8.8761 26.9116 9.13476 26.8423 9.36279 26.7107L8.61279 25.4116ZM46.7179 3.41162L47.4679 4.71066C47.9326 4.44235 48.2186 3.94623 48.2179 3.40961C48.2172 2.873 47.9299 2.37764 47.4644 2.11058L46.7179 3.41162ZM46.7178 3.41154L45.9678 2.1125C45.5031 2.38081 45.2171 2.87694 45.2178 3.41355C45.2185 3.95017 45.5058 4.44552 45.9713 4.71258L46.7178 3.41154ZM51.6168 2.92626L50.8668 4.2253V4.2253L51.6168 2.92626ZM64.7883 14.7106C66.3346 13.8178 67.495 13.8256 68.1873 14.2253L69.6873 11.6272C67.6739 10.4648 65.2881 10.9579 63.2883 12.1125L64.7883 14.7106ZM64.8034 12.1213L64.8032 12.1213L63.2733 14.7018L63.2735 14.7019L64.8034 12.1213ZM26.6833 36.7107L64.7884 14.7107L63.2884 12.1126L25.1833 34.1126L26.6833 36.7107ZM20.5051 47.4116C20.5051 45.5277 21.1763 43.3372 22.3333 41.3332C23.4903 39.3292 25.0518 37.6526 26.6833 36.7107L25.1833 34.1126C22.9884 35.3798 21.0858 37.494 19.7353 39.8332C18.3847 42.1724 17.5051 44.8772 17.5051 47.4116H20.5051ZM20.5051 91.4116L20.5051 47.4116H17.5051L17.5051 91.4116H20.5051ZM21.7843 94.5979C21.0921 94.1982 20.5051 93.1972 20.5051 91.4116H17.5051C17.5051 93.7208 18.2709 96.0335 20.2843 97.1959L21.7843 94.5979ZM2.96379 87.1959L20.2843 97.1959L21.7843 94.5979L4.46379 84.5979L2.96379 87.1959ZM0.18457 81.4116C0.18457 83.7208 0.950396 86.0335 2.9638 87.1959L4.46379 84.5979C3.77156 84.1982 3.18457 83.1972 3.18457 81.4116H0.18457ZM0.18457 37.4116V81.4116H3.18457V37.4116H0.18457ZM7.86277 24.1126C5.66792 25.3798 3.76528 27.494 2.41476 29.8332C1.06423 32.1724 0.18457 34.8772 0.18457 37.4116H3.18457C3.18457 35.5277 3.85584 33.3372 5.01283 31.3332C6.16983 29.3292 7.73129 27.6526 9.36277 26.7107L7.86277 24.1126ZM8.61279 23.9116H8.61277V26.9116H8.61279V23.9116ZM45.9679 2.11258L7.86279 24.1126L9.36279 26.7107L47.4679 4.71066L45.9679 2.11258ZM45.9713 4.71258L45.9714 4.71266L47.4644 2.11058L47.4643 2.1105L45.9713 4.71258ZM52.3668 1.62722C50.3534 0.464787 47.9676 0.957898 45.9678 2.1125L47.4678 4.71058C49.0141 3.81781 50.1745 3.82564 50.8668 4.2253L52.3668 1.62722ZM69.6873 11.6272L52.3668 1.62722L50.8668 4.2253L68.1873 14.2253L69.6873 11.6272Z" fill="#3692FF"/>
<path d="M33.6846 67.4648L37.1209 57.2081L44.4846 58.1L49.3937 48.2892L55.2846 47.3973L60.6846 34.4648" stroke="#3692FF" stroke-width="3" stroke-linecap="round" stroke-linejoin="round"/>
<path d="M29.6846 47.4648V77.4648" stroke="#3692FF" stroke-width="3" stroke-linecap="round"/>
<path d="M29.6846 77.4648L63.6846 57.4648" stroke="#3692FF" stroke-width="3" stroke-linecap="round"/>
</svg>
