<svg width="84" height="112" viewBox="0 0 84 112" fill="none" xmlns="http://www.w3.org/2000/svg">
<path fill-rule="evenodd" clip-rule="evenodd" d="M29.7367 72.1519V106.371L11.7905 96.0538V61.8345L29.7367 72.1519Z" fill="#E7F2FF" stroke="#3692FF" stroke-width="3" stroke-linejoin="round"/>
<path fill-rule="evenodd" clip-rule="evenodd" d="M55.1707 17.4023C52.8421 16.104 49.1039 18.2532 46.7754 22.2288L46.7755 22.2289L21.7427 64.969L21.7426 64.9689C19.3025 69.1351 19.5131 73.0649 21.3839 74.5479L3.43769 64.2305C1.56694 62.7475 1.35629 58.8177 3.79644 54.6515L3.79652 54.6516L28.8294 11.9115L28.8292 11.9114C31.1578 7.93572 34.8959 5.78659 37.2245 7.08483L55.1707 17.4023Z" fill="white"/>
<path d="M46.7754 22.2288L45.4811 21.4708C45.2735 21.8251 45.2203 22.249 45.3339 22.6436C45.4474 23.0382 45.7178 23.369 46.0819 23.5589L46.7754 22.2288ZM55.1707 17.4023L54.4402 18.7124C55.1604 19.114 56.0697 18.8589 56.476 18.1413C56.8823 17.4238 56.6332 16.5129 55.9183 16.1019L55.1707 17.4023ZM46.7755 22.2289L48.0699 22.987C48.2774 22.6327 48.3306 22.2088 48.2171 21.8141C48.1035 21.4195 47.8332 21.0887 47.4691 20.8989L46.7755 22.2289ZM21.7427 64.969L20.707 66.0541C21.0387 66.3707 21.497 66.5182 21.9511 66.4545C22.4052 66.3907 22.8053 66.1228 23.037 65.7271L21.7427 64.969ZM21.7426 64.9689L22.7783 63.8839C22.4466 63.5673 21.9883 63.4198 21.5342 63.4835C21.0801 63.5472 20.68 63.8152 20.4483 64.2108L21.7426 64.9689ZM21.3839 74.5479L20.6362 75.8484C21.317 76.2397 22.1844 76.0398 22.6252 75.39C23.066 74.7401 22.931 73.8603 22.3157 73.3725L21.3839 74.5479ZM3.43769 64.2305L2.50587 65.4059C2.56409 65.4521 2.62566 65.4939 2.69007 65.5309L3.43769 64.2305ZM3.79644 54.6515L4.83369 53.5679C4.50216 53.2506 4.04359 53.1024 3.58906 53.1659C3.13452 53.2293 2.73405 53.4974 2.5021 53.8934L3.79644 54.6515ZM3.79652 54.6516L2.75926 55.7351C3.09079 56.0525 3.54936 56.2006 4.0039 56.1372C4.45843 56.0737 4.85891 55.8057 5.09085 55.4097L3.79652 54.6516ZM28.8294 11.9115L30.1237 12.6695C30.3305 12.3165 30.3841 11.8943 30.272 11.5007C30.16 11.1072 29.8921 10.7765 29.5303 10.5853L28.8294 11.9115ZM28.8292 11.9114L27.5349 11.1533C27.3281 11.5064 27.2745 11.9286 27.3866 12.3221C27.4986 12.7156 27.7665 13.0463 28.1283 13.2375L28.8292 11.9114ZM37.2245 7.08483L37.9721 5.78442C37.9664 5.78114 37.9607 5.7779 37.955 5.7747L37.2245 7.08483ZM48.0697 22.9869C49.1259 21.1837 50.4679 19.8584 51.7206 19.1383C53.012 18.3958 53.9293 18.4275 54.4402 18.7124L55.9011 16.0922C54.0835 15.0788 51.9674 15.5359 50.2254 16.5374C48.4447 17.5612 46.7534 19.2984 45.4811 21.4708L48.0697 22.9869ZM47.4691 20.8989L47.4689 20.8988L46.0819 23.5589L46.082 23.559L47.4691 20.8989ZM23.037 65.7271L48.0699 22.987L45.4812 21.4708L20.4484 64.2109L23.037 65.7271ZM20.7069 66.054L20.707 66.0541L22.7784 63.884L22.7783 63.8839L20.7069 66.054ZM20.4483 64.2108C19.1202 66.4783 18.4686 68.7552 18.4467 70.7482C18.4253 72.7063 19.0242 74.5915 20.452 75.7234L22.3157 73.3725C21.8728 73.0214 21.431 72.2001 21.4466 70.7811C21.4617 69.3969 21.9248 67.6258 23.0369 65.727L20.4483 64.2108ZM22.1315 73.2475L4.18531 62.9301L2.69007 65.5309L20.6362 75.8484L22.1315 73.2475ZM4.36952 63.055C3.92663 62.7039 3.48483 61.8827 3.50039 60.4636C3.51556 59.0794 3.97868 57.3083 5.09077 55.4096L2.5021 53.8934C1.17405 56.1609 0.522417 58.4378 0.500568 60.4307C0.479101 62.3889 1.078 64.274 2.50587 65.4059L4.36952 63.055ZM2.75918 55.735L2.75926 55.7351L4.83377 53.568L4.83369 53.5679L2.75918 55.735ZM27.535 11.1534L2.50219 53.8935L5.09085 55.4097L30.1237 12.6695L27.535 11.1534ZM28.1283 13.2375L28.1284 13.2376L29.5303 10.5853L29.5302 10.5852L28.1283 13.2375ZM37.955 5.7747C36.1374 4.76133 34.0212 5.21848 32.2792 6.21998C30.4986 7.24371 28.8073 8.9809 27.5349 11.1533L30.1236 12.6695C31.1797 10.8662 32.5218 9.54099 33.7745 8.8208C35.0658 8.07838 35.9831 8.11008 36.4941 8.39497L37.955 5.7747ZM55.9183 16.1019L37.9721 5.78442L36.4769 8.38524L54.4231 18.7027L55.9183 16.1019Z" fill="#3692FF"/>
<path fill-rule="evenodd" clip-rule="evenodd" d="M76.0057 45.5513C81.3572 42.4747 84.0162 33.4848 80.2033 31.3592L62.2571 21.0417C66.0701 23.1674 63.4111 32.1572 58.0596 35.2339L76.0057 45.5513Z" fill="#6580E1"/>
<path d="M55.1708 17.4022C52.8423 16.104 49.1041 18.2531 46.7755 22.2288L21.7427 64.9689C17.93 71.4786 20.5889 77.4111 25.9404 74.3345L29.7368 72.1518V106.371L72.2094 81.9534V47.7338L76.006 45.5512C81.3574 42.4746 84.0164 33.4847 80.2036 31.359L55.1708 17.4022Z" fill="#FFE791" stroke="#3692FF" stroke-width="3" stroke-linejoin="round"/>
</svg>
