<svg width="36" height="71" viewBox="0 0 36 71" fill="none" xmlns="http://www.w3.org/2000/svg">
<path d="M27.8483 7.30257L18.4504 1.97028C17.1216 1.12133 15.2352 1.19072 13.1428 2.3779C9.1191 4.66095 5.85708 10.2134 5.85708 14.7795L5.85714 37.928C2.90775 42.1155 1 47.2004 1 51.7086C1 55.3615 2.25258 57.9717 4.29693 59.2778L14.0112 64.7896C11.9669 63.4836 10.7143 60.8733 10.7143 57.2205C10.7143 52.7122 12.622 47.6273 15.5714 43.4398V20.2913C15.5714 15.7252 18.8334 10.1728 22.8571 7.88971C24.7885 6.79385 26.5444 6.65043 27.8483 7.30257Z" fill="white"/>
<path d="M28.1647 7.48209C28.0624 7.41678 27.9569 7.35691 27.8483 7.30257L28.1647 7.48209Z" fill="white"/>
<path d="M27.8483 7.30257L18.4504 1.97028C17.1216 1.12133 15.2352 1.19072 13.1428 2.3779C9.1191 4.66095 5.85708 10.2134 5.85708 14.7795L5.85714 37.928C2.90775 42.1155 1 47.2004 1 51.7087C1 55.3615 2.25258 57.9717 4.29693 59.2778L14.0112 64.7896C11.9669 63.4836 10.7143 60.8733 10.7143 57.2205C10.7143 52.7122 12.622 47.6273 15.5714 43.4398V20.2913C15.5714 15.7252 18.8334 10.1728 22.8571 7.88971C24.7885 6.79385 26.5444 6.65043 27.8483 7.30257ZM27.8483 7.30257C27.9569 7.35691 28.0624 7.41678 28.1647 7.48209L27.8483 7.30257Z" stroke="#3692FF" stroke-width="2" stroke-linejoin="round"/>
<path d="M22.8572 7.88974C18.8335 10.1728 15.5715 15.7252 15.5715 20.2913V43.4398C12.6221 47.6273 10.7144 52.7122 10.7144 57.2204C10.7144 64.8307 16.1509 67.9153 22.8572 64.1102C29.5635 60.3051 35 51.0511 35 43.4409C35 38.9327 33.0923 36.0126 30.1429 35.1721V12.0236C30.1429 7.45752 26.8809 5.6067 22.8572 7.88974Z" fill="#E7F2FF" stroke="#3692FF" stroke-width="2" stroke-linejoin="round"/>
<path fill-rule="evenodd" clip-rule="evenodd" d="M23.0932 27.4406C21.752 28.1928 20.6646 30.0527 20.6646 31.5949V45.3804C18.6581 47.5585 17.2646 50.6523 17.2646 53.3333C17.2646 57.0022 19.8742 58.5086 23.0932 56.6981C26.3122 54.8875 28.9218 50.4456 28.9218 46.7768C28.9218 44.0958 27.5283 42.5695 25.5218 42.6485V28.871C25.5218 27.3289 24.4345 26.6885 23.0932 27.4406Z" fill="#3692FF"/>
</svg>
