<svg width="1124" height="1103" viewBox="0 0 1124 1103" fill="none" xmlns="http://www.w3.org/2000/svg">
<path d="M3.88965 809.105L333.89 1000.26V506.262L3.88965 317.105V809.105Z" fill="white" stroke="#3692FF" stroke-width="5" stroke-linejoin="round"/>
<path d="M522.89 3L2.88965 317L164.39 408.262L686.89 103L522.89 3Z" fill="white" stroke="#3692FF" stroke-width="5" stroke-linejoin="round"/>
<path d="M181.889 555.503L6.88965 450.798V466.903L181.889 571.607V555.503Z" fill="#C0DDFF"/>
<path d="M181.889 524.693L6.88965 419.988V436.093L181.889 540.798V524.693Z" fill="#C0DDFF"/>
<path d="M181.889 493.883L6.88965 389.179V405.284L181.889 509.988V493.883Z" fill="#C0DDFF"/>
<path d="M181.889 463.074L6.88965 358.369V374.474L181.889 479.179V463.074Z" fill="#C0DDFF"/>
<path d="M181.889 698.104L6.88965 593.399V609.504L181.889 714.209V698.104Z" fill="#C0DDFF"/>
<path d="M181.889 667.294L6.88965 562.59V578.695L181.889 683.399V667.294Z" fill="#C0DDFF"/>
<path d="M181.889 636.485L6.88965 531.78V547.885L181.889 652.59V636.485Z" fill="#C0DDFF"/>
<path d="M181.889 605.675L6.88965 500.971V517.076L181.889 621.78V605.675Z" fill="#C0DDFF"/>
<path d="M329.89 926.169L6.88965 738.106V754.211L329.89 942.274V926.169Z" fill="#C0DDFF"/>
<path d="M329.89 954.55L6.88965 766.487V782.592L329.89 970.655V954.55Z" fill="#C0DDFF"/>
<path d="M181.889 812.002L6.88965 707.297V723.402L181.889 828.106V812.002Z" fill="#C0DDFF"/>
<path d="M181.889 781.192L6.88965 676.487V692.592L181.889 797.297V781.192Z" fill="#C0DDFF"/>
<path d="M181.889 750.382L6.88965 645.678V661.783L181.889 766.487V750.382Z" fill="#C0DDFF"/>
<path d="M239.396 338.871L678.157 594.273V1099.26L239.396 843.858V338.871Z" fill="#E7F2FF" stroke="#3692FF" stroke-width="6" stroke-linejoin="round"/>
<path d="M1120.09 339.133L678.172 594.274V1099.26L1120.09 844.12V339.133Z" fill="#88BFFF" stroke="#3692FF" stroke-width="6" stroke-linejoin="round"/>
<path d="M419.89 949.465L333.89 999.965V864.965L419.89 826.465V949.465Z" fill="#88BFFF" stroke="#3692FF" stroke-width="5" stroke-linejoin="round"/>
<path d="M458.111 606.106C458.111 621.007 468.572 634.497 485.486 644.262C521.986 665.334 581.163 665.335 617.662 644.262V1064.48C581.162 1085.56 521.984 1085.56 485.484 1064.48C468.572 1054.72 458.111 1041.23 458.111 1026.33V606.106Z" fill="white" stroke="#3692FF" stroke-width="6"/>
<path d="M539.89 1077.26V636.762L614.89 648.762V1062.76C582.14 1079.51 552.89 1078.51 539.89 1077.26Z" fill="#E7F2FF"/>
<path d="M458.501 899.646C472.624 921.839 518.625 970.664 617.89 939.997" stroke="#3692FF" stroke-width="6" stroke-linejoin="round"/>
<path d="M458.501 828.465C472.624 850.658 518.625 899.484 617.89 868.816" stroke="#3692FF" stroke-width="6" stroke-linejoin="round"/>
<path d="M458.501 757.285C472.624 779.479 518.625 828.304 617.89 797.637" stroke="#3692FF" stroke-width="6" stroke-linejoin="round"/>
<path d="M458.501 686.105C472.624 708.299 518.625 757.124 617.89 726.457" stroke="#3692FF" stroke-width="6" stroke-linejoin="round"/>
<path d="M419.888 856.262L306.888 922.262V510.262L419.888 445.262V856.262Z" fill="#88BFFF" stroke="#3692FF" stroke-width="6" stroke-linejoin="round"/>
<path d="M565.763 702.257L306.888 552.007V511.007L565.763 661.632V702.257Z" fill="white"/>
<path d="M306.888 552.007H303.888V553.734L305.382 554.601L306.888 552.007ZM565.763 702.257L564.257 704.851C565.185 705.39 566.33 705.392 567.26 704.857C568.19 704.321 568.763 703.33 568.763 702.257H565.763ZM565.763 661.632H568.763V659.907L567.271 659.039L565.763 661.632ZM306.888 511.007L308.396 508.414L303.888 505.79V511.007H306.888ZM305.382 554.601L564.257 704.851L567.269 699.662L308.394 549.412L305.382 554.601ZM568.763 702.257V661.632H562.763V702.257H568.763ZM567.271 659.039L308.396 508.414L305.379 513.6L564.254 664.225L567.271 659.039ZM303.888 511.007V552.007H309.888V511.007H303.888Z" fill="#3692FF"/>
<path fill-rule="evenodd" clip-rule="evenodd" d="M1120.13 339.113L681.358 83.7559L315.572 294.902L315.39 294.763L273.694 319.076L239.399 338.873L239.571 338.973L125.888 405.263L564.888 661.263L693.2 585.555L1120.13 339.113Z" fill="white"/>
<path d="M681.358 83.7559L682.867 81.163C681.937 80.6221 680.789 80.62 679.858 81.1577L681.358 83.7559ZM1120.13 339.113L1121.63 341.712C1122.56 341.177 1123.13 340.189 1123.13 339.119C1123.13 338.049 1122.56 337.059 1121.64 336.521L1120.13 339.113ZM315.572 294.902L313.754 297.289C314.716 298.022 316.025 298.105 317.072 297.5L315.572 294.902ZM315.39 294.763L317.208 292.377C316.242 291.641 314.927 291.56 313.878 292.172L315.39 294.763ZM273.694 319.076L275.194 321.674L275.205 321.668L273.694 319.076ZM239.399 338.873L237.899 336.275C236.972 336.81 236.401 337.798 236.399 338.868C236.397 339.938 236.965 340.928 237.89 341.466L239.399 338.873ZM239.571 338.973L241.083 341.565C242.005 341.027 242.572 340.04 242.571 338.972C242.571 337.904 242.003 336.917 241.08 336.38L239.571 338.973ZM125.888 405.263L124.377 402.672C123.455 403.209 122.888 404.196 122.888 405.263C122.888 406.33 123.455 407.317 124.377 407.855L125.888 405.263ZM564.888 661.263L563.377 663.855C564.316 664.402 565.477 664.399 566.413 663.847L564.888 661.263ZM693.2 585.555L691.7 582.957C691.692 582.962 691.684 582.966 691.675 582.971L693.2 585.555ZM679.849 86.3487L1118.62 341.706L1121.64 336.521L682.867 81.163L679.849 86.3487ZM317.072 297.5L682.857 86.3541L679.858 81.1577L314.073 292.304L317.072 297.5ZM313.572 297.149L313.754 297.289L317.39 292.516L317.208 292.377L313.572 297.149ZM275.205 321.668L316.901 297.355L313.878 292.172L272.183 316.485L275.205 321.668ZM240.899 341.471L275.194 321.674L272.194 316.478L237.899 336.275L240.899 341.471ZM241.08 336.38L240.908 336.28L237.89 341.466L238.062 341.566L241.08 336.38ZM127.399 407.855L241.083 341.565L238.06 336.382L124.377 402.672L127.399 407.855ZM566.399 658.672L127.399 402.672L124.377 407.855L563.377 663.855L566.399 658.672ZM691.675 582.971L563.364 658.679L566.413 663.847L694.724 588.139L691.675 582.971ZM1118.63 336.515L691.7 582.957L694.7 588.153L1121.63 341.712L1118.63 336.515Z" fill="#3692FF"/>
<path d="M306.89 510.637L126.89 405.762V818.512L306.89 923.262V510.637Z" fill="white" stroke="#3692FF" stroke-width="5" stroke-linejoin="round"/>
<path d="M564.89 701.262V661.262L678.89 596.262V634.262L564.89 701.262Z" fill="#88BFFF" stroke="#3692FF" stroke-width="6" stroke-linejoin="round"/>
<path d="M558.89 986.262C502.89 989.262 470.89 962.262 458.89 943.262V1028.76C463.69 1071.16 527.556 1080.76 558.89 1080.26V986.262Z" fill="#88BFFF" stroke="#3692FF" stroke-width="5" stroke-linejoin="round"/>
<path d="M182.158 476.402L154.89 459.262V610.186L182.158 626.768V476.402Z" fill="#C0DDFF"/>
<path d="M219.39 522.691V498.923L279.89 532.954V557.262L219.39 522.691Z" fill="#E7F2FF" stroke="#3692FF" stroke-width="4" stroke-linejoin="round"/>
</svg>
