<svg width="190" height="297" viewBox="0 0 190 297" fill="none" xmlns="http://www.w3.org/2000/svg">
<g clip-path="url(#clip0_1602_896)">
<path d="M83.0625 135.342H0V147.993H83.0625C153.506 147.993 168.689 144.535 189.655 130.699V115.39C167.416 131.118 160.215 135.36 83.0625 135.36" fill="#0093D7"/>
<path d="M189.618 156.495H0V169.165H189.618V156.495Z" fill="#0093D7"/>
<path d="M0 183V190.609H189.655V177.958H0V183Z" fill="#0093D7"/>
<path d="M157.597 56.5721C138.286 79.3637 112.12 89.0301 79.9531 85.3165C35.2216 79.5457 17.9472 81.6028 0 90.8505V105.341C17.3107 94.9465 30.5847 91.7607 78.4075 97.9502C83.408 98.5327 88.2084 98.8058 92.7907 98.8058C130.34 98.8058 153.978 80.6562 167.616 64.4181C176.781 53.4956 182.563 42.2272 185.909 34.2719L176.18 24.2596C173.835 30.7949 168.198 44.084 157.597 56.5903V56.5721Z" fill="#0093D7"/>
<path d="M91.0087 111.239C43.5496 107.234 14.8196 110.638 0 113.733V126.767C12.383 123.909 40.4948 119.741 89.9359 123.909C118.557 126.33 144.287 120.614 166.398 106.961C174.78 101.791 182.472 95.6018 189.618 88.3019V69.0965C164.634 100.462 131.522 114.643 90.9905 111.239H91.0087Z" fill="#0093D7"/>
<path d="M126.539 9.51425C132.467 16.5775 133.504 29.8847 128.467 40.7344C121.193 56.39 104.719 62.4156 83.1898 57.2456C44.9134 48.0889 16.9653 49.8729 0 62.5248V80.6562C1.49105 78.0712 3.69126 75.3042 6.90975 72.8102C16.3834 65.4739 36.8217 58.9022 80.2986 69.315C107.665 75.8685 129.867 67.1305 139.704 45.959C147.178 29.8483 144.887 10.8067 134.813 0.211914L126.521 9.51425H126.539Z" fill="#0093D7"/>
<path d="M4.76402 259.549V240.962H3.3457V261.041H14.3468V259.785H5.01859H4.76402V259.549Z" fill="#0093D7"/>
<path d="M35.2762 240.962H33.8579V261.041H35.2762V240.962Z" fill="#0093D7"/>
<path d="M126.376 254.324H116.193L116.338 253.978L121.121 242.692L121.357 242.145L121.575 242.692L126.212 253.978L126.357 254.324H126.376ZM120.63 240.962L111.883 261.041H113.338L115.593 255.726L115.647 255.562H126.867L126.921 255.726L129.103 261.041H130.703L122.266 240.962H120.611H120.63Z" fill="#0093D7"/>
<path d="M188.109 240.962L181.817 250.61L181.617 250.938L181.399 250.61L175.271 240.962H173.58L180.872 252.285L180.908 252.34V252.431V261.041H182.326V252.431V252.34L182.363 252.285L189.654 240.962H188.109Z" fill="#0093D7"/>
<path d="M97.0637 260.313C97.0637 260.313 97.0273 260.222 97.0091 260.186C96.8091 259.658 96.5909 258.93 96.3363 257.91C96.1545 257.164 95.9363 256.254 95.6999 255.125C95.2817 253.177 94.4634 251.757 93.2088 251.066C92.9905 250.956 92.7723 250.847 92.536 250.774V250.701C92.536 250.701 92.5541 250.701 92.5723 250.701H86.499L86.5899 251.266H89.7902C89.7902 251.266 89.9175 251.266 89.9721 251.266C90.3176 251.284 90.6449 251.339 90.9358 251.411C91.9723 251.648 92.7542 252.14 93.3179 252.941C93.427 253.086 93.4997 253.232 93.5906 253.396C93.9361 254.015 94.2088 254.761 94.3907 255.671C94.5907 256.654 94.7907 257.528 94.9726 258.256C95.2089 259.294 95.4272 260.022 95.609 260.459C95.6999 260.696 95.7726 260.914 95.8454 261.041H97.3364C97.2819 260.932 97.1 260.441 97.0455 260.313" fill="#0093D7"/>
<path d="M90.3724 250.028H86.0629V242.2H90.3724C95.0637 242.2 95.4456 245.186 95.4456 246.114C95.4456 247.042 95.0819 250.028 90.3724 250.028ZM89.7905 240.962H84.6445V261.041H86.0629V251.266L86.8084 251.248V250.683H91.7361C91.7361 250.683 91.6998 250.683 91.6998 250.701V250.756C91.9361 250.829 92.1543 250.938 92.3725 251.047C95.3365 250.501 96.8639 248.863 96.8639 246.114C96.8639 242.692 94.4818 240.962 89.8087 240.962" fill="#0093D7"/>
<path d="M158.943 260.313C158.943 260.313 158.906 260.222 158.888 260.186C158.688 259.658 158.47 258.93 158.215 257.892C158.033 257.146 157.815 256.236 157.579 255.125C157.161 253.159 156.342 251.757 155.088 251.066C154.869 250.956 154.651 250.847 154.415 250.774V250.701H154.451H148.378L148.469 251.266H151.669C151.669 251.266 151.778 251.266 151.851 251.266C152.196 251.284 152.524 251.339 152.833 251.393C153.869 251.63 154.633 252.121 155.215 252.922C155.306 253.068 155.397 253.232 155.488 253.396C155.833 254.015 156.106 254.761 156.306 255.671C156.506 256.654 156.706 257.528 156.87 258.256C157.106 259.294 157.324 260.022 157.524 260.459C157.615 260.696 157.688 260.914 157.761 261.041H159.252C159.197 260.932 159.015 260.441 158.961 260.313" fill="#0093D7"/>
<path d="M152.251 250.028H147.941V242.2H152.251C156.96 242.2 157.324 245.186 157.324 246.114C157.324 247.042 156.96 250.028 152.251 250.028ZM151.669 240.962H146.523V261.041H147.941V251.266H148.687V250.701H153.615C153.615 250.701 153.578 250.701 153.56 250.72V250.774C153.796 250.847 154.015 250.938 154.233 251.066C157.197 250.519 158.724 248.881 158.724 246.114C158.724 242.692 156.342 240.962 151.669 240.962Z" fill="#0093D7"/>
<path d="M60.2242 259.785H55.5874V251.084H60.5151C62.9154 251.084 65.6974 252.267 65.6974 255.58C65.6974 256.836 65.1519 259.785 60.2242 259.785ZM55.5874 249.591V242.2H60.0787C63.2063 242.2 64.7883 243.529 64.7883 246.132C64.7883 247.006 64.4428 249.846 59.806 249.846H55.5874V249.591ZM62.7517 250.72H62.5153V250.265L62.7153 250.174C64.8974 249.737 66.1884 248.226 66.1884 246.15C66.1884 242.619 64.17 240.962 59.8242 240.962H54.1509V261.041H60.4606C62.4426 261.041 67.0976 260.513 67.0976 255.544C67.0976 252.868 65.352 250.938 62.7335 250.738" fill="#0093D7"/>
<path d="M63.0426 250.101L62.1334 250.465C62.1334 250.465 63.5881 250.665 64.4245 251.138C65.261 251.63 62.3698 251.229 62.3698 251.229L60.7515 250.501L61.0242 250.101L62.388 249.973H63.079V250.101H63.0426Z" fill="#0093D7"/>
<path d="M63.5697 249.919C63.5697 249.919 62.606 250.428 61.515 250.647C60.4422 250.884 60.9513 250.174 60.9513 250.174L62.8424 249.591H63.5697V249.919Z" fill="#0093D7"/>
<path d="M11.3831 280.684C11.8377 280.684 12.2014 280.32 12.2014 279.865V279.191H4.36426V280.684H11.3831Z" fill="#0093D7"/>
<path d="M3.32754 280.684C2.87295 280.684 2.50928 280.32 2.50928 279.865V279.191H9.63723V280.684H3.32754Z" fill="#0093D7"/>
<path d="M11.9284 285.635C12.383 285.581 12.6921 285.162 12.6375 284.725L12.5648 284.052L12.1829 284.106L11.3283 284.215L4.78223 285.016L4.96406 286.509L11.9284 285.635Z" fill="#0093D7"/>
<path d="M3.27304 286.709C2.81846 286.764 2.41842 286.436 2.36387 285.999L2.27295 285.326L2.6548 285.289L3.50943 285.18L9.34635 284.452L9.52819 285.945L3.27304 286.728V286.709Z" fill="#0093D7"/>
<path d="M22.7293 296.194C23.1839 296.194 23.5476 295.83 23.5476 295.375V294.683H15.7104V296.194H22.7293Z" fill="#0093D7"/>
<path d="M2.40029 296.194C1.9457 296.194 1.58203 295.83 1.58203 295.375V294.683H15.947V296.194H2.40029Z" fill="#0093D7"/>
<path d="M4.85488 288.22C4.40029 288.22 4.03662 288.584 4.03662 289.039V289.731H14.5285V288.22H4.85488Z" fill="#0093D7"/>
<path d="M20.4747 288.22C20.9293 288.22 21.293 288.584 21.293 289.039V289.731H14.165V288.22H20.4566H20.4747Z" fill="#0093D7"/>
<path d="M7.6006 275.696H6.76416V285.38H7.6006C8.05519 285.38 8.41886 285.016 8.41886 284.561V276.515C8.41886 276.06 8.05519 275.696 7.6006 275.696Z" fill="#0093D7"/>
<path d="M15.2013 285.799C15.2013 286.254 15.565 286.618 16.0195 286.618H16.6923V278.772H15.1831V285.799H15.2013Z" fill="#0093D7"/>
<path d="M15.2013 276.497C15.2013 276.042 15.565 275.678 16.0195 275.678H16.6923V282.814H15.1831V276.497H15.2013Z" fill="#0093D7"/>
<path d="M16.8379 275.678H16.6924V286.618H16.8379V275.678Z" fill="#0093D7"/>
<path d="M23.0929 283.014C23.4566 283.269 23.5657 283.778 23.2929 284.161L22.9111 284.725L22.602 284.507L21.8928 284.015L19.1289 282.085L19.9653 280.848L23.1111 283.014H23.0929Z" fill="#0093D7"/>
<path d="M17.6019 281.175C17.2382 280.92 17.1473 280.411 17.3837 280.028L17.7655 279.464L18.0746 279.683L18.7838 280.174L21.4204 281.994L20.5658 283.232L17.5655 281.157L17.6019 281.175Z" fill="#0093D7"/>
<path d="M20.6021 283.251L22.8568 284.816L22.9114 284.707L20.6566 283.141L20.6021 283.251Z" fill="#0093D7"/>
<path d="M17.7651 279.482L20.3108 281.23L20.3836 281.139L17.8379 279.373L17.7651 279.482Z" fill="#0093D7"/>
<path d="M5.65496 289.203H4.03662V294.683H5.65496V289.203Z" fill="#0093D7"/>
<path d="M11.11 289.203H9.4917V294.683H11.11V289.203Z" fill="#0093D7"/>
<path d="M15.9469 289.312H14.3286V294.792H15.9469V289.312Z" fill="#0093D7"/>
<path d="M21.2931 289.312H19.6748V294.792H21.2931V289.312Z" fill="#0093D7"/>
<path d="M49.7137 276.26H37.2943C36.8579 276.26 36.4761 276.624 36.4761 277.079V277.753H46.3316H49.6955V276.242L49.7137 276.26Z" fill="#0093D7"/>
<path d="M47.2952 277.771H45.7314V294.901H47.2952V277.771Z" fill="#0093D7"/>
<path d="M52.9871 286.746C53.4417 286.746 53.8054 286.382 53.8054 285.927V285.235H45.9683V286.746H52.9871Z" fill="#0093D7"/>
<path d="M40.0404 286.746C39.5858 286.746 39.2222 286.382 39.2222 285.927V285.235H46.3501V286.746H40.0404Z" fill="#0093D7"/>
<path d="M55.7692 276.26C56.2238 276.26 56.5874 276.624 56.5874 277.079V277.753H49.4595V276.242H55.7692V276.26Z" fill="#0093D7"/>
<path d="M56.5871 277.771H54.9688V283.251H56.5871V277.771Z" fill="#0093D7"/>
<path d="M38.0944 277.644H36.4761V294.919H38.0944V277.644Z" fill="#0093D7"/>
<path d="M37.2943 295.993C36.8397 295.993 36.4761 295.629 36.4761 295.174V294.501H47.659V295.993H37.2943Z" fill="#0093D7"/>
<path d="M55.7689 295.993C56.2235 295.993 56.5872 295.629 56.5872 295.174V294.501H47.2227V295.993H55.7689Z" fill="#0093D7"/>
<path d="M56.5871 283.214H54.9688V294.865H56.5871V283.214Z" fill="#0093D7"/>
<path d="M120.63 280.629C120.63 280.629 120.611 280.738 120.593 280.811H120.63V280.629Z" fill="#0093D7"/>
<path d="M119.63 279.591H111.047V280.811H118.648C118.648 280.811 118.611 280.684 118.611 280.611C118.611 280.047 119.066 279.61 119.611 279.61" fill="#0093D7"/>
<path d="M120.63 280.575C120.63 280.028 120.175 279.591 119.629 279.591C119.084 279.591 118.629 280.047 118.629 280.593C118.629 280.666 118.648 280.72 118.666 280.793H120.611C120.611 280.793 120.648 280.684 120.648 280.629V280.575H120.63Z" fill="#0093D7"/>
<path d="M119.375 291.624C119.83 291.697 120.121 292.134 120.048 292.571L119.939 293.245L119.557 293.19L118.721 293.044L115.393 292.48L115.629 291.005L119.393 291.624H119.375Z" fill="#0093D7"/>
<path d="M110.41 291.643C109.974 291.57 109.665 291.151 109.738 290.696L109.847 290.022L110.229 290.077L111.065 290.223L117.011 291.224L116.775 292.698L110.392 291.624L110.41 291.643Z" fill="#0093D7"/>
<path d="M117.739 288.22C118.193 288.293 118.484 288.73 118.393 289.167L118.284 289.84L117.902 289.786L117.066 289.622L113.738 289.021L113.993 287.547L117.739 288.22Z" fill="#0093D7"/>
<path d="M112.356 288.785C111.902 288.694 111.611 288.275 111.702 287.838L111.811 287.164L112.193 287.237L113.029 287.383L116.193 287.947L115.92 289.422L112.338 288.785H112.356Z" fill="#0093D7"/>
<path d="M123.539 296.194C123.994 296.194 124.357 295.83 124.357 295.375V294.683H114.975V296.194H123.539Z" fill="#0093D7"/>
<path d="M105.374 296.194C104.919 296.194 104.556 295.83 104.556 295.374V294.701H115.52V296.212H105.374V296.194Z" fill="#0093D7"/>
<path d="M123.539 276.078H105.355C104.901 276.078 104.537 276.442 104.537 276.897V294.974H106.155V277.571H124.357V276.897C124.357 276.442 123.994 276.078 123.539 276.078Z" fill="#0093D7"/>
<path d="M124.358 277.571H122.739V294.701H124.358V277.571Z" fill="#0093D7"/>
<path d="M108.192 282.795C108.192 282.795 108.229 282.795 108.247 282.777C108.229 282.777 108.211 282.795 108.192 282.795ZM108.083 282.868C108.083 282.868 108.101 282.868 108.101 282.85C108.101 282.85 108.101 282.85 108.083 282.868ZM112.702 278.208C112.702 278.208 112.375 278.117 112.175 278.081C112.12 278.062 112.084 278.044 112.011 278.026C111.92 278.026 111.829 278.026 111.738 278.026C111.447 278.081 111.229 278.244 111.12 278.499C111.12 278.499 111.12 278.499 111.12 278.517C110.738 279.428 109.829 281.157 108.011 282.959C108.011 282.959 108.011 282.959 108.011 282.977C108.011 282.977 107.938 283.068 107.901 283.105C107.901 283.105 107.901 283.105 107.901 283.123C107.883 283.16 107.865 283.178 107.847 283.214C107.847 283.232 107.847 283.269 107.829 283.287C107.829 283.305 107.829 283.323 107.829 283.342C107.811 283.378 107.811 283.433 107.811 283.469C107.811 283.469 107.811 283.487 107.811 283.505C107.811 283.56 107.811 283.615 107.811 283.651C107.829 283.815 107.92 283.96 108.011 284.088L108.392 284.525C108.447 284.47 108.52 284.416 108.574 284.361C108.883 284.07 109.174 283.797 109.447 283.505C110.847 282.031 111.702 280.611 112.175 279.628C112.411 279.136 112.556 278.754 112.647 278.499C112.702 278.335 112.738 278.244 112.738 278.208" fill="#0093D7"/>
<path d="M119.575 279.628H110.993V280.848H118.593C118.593 280.848 118.557 280.702 118.557 280.629C118.557 280.083 119.012 279.628 119.557 279.628" fill="#0093D7"/>
<path d="M120.521 280.611C120.521 280.065 120.066 279.628 119.521 279.628C118.975 279.628 118.521 280.083 118.521 280.629C118.521 280.702 118.539 280.775 118.557 280.848H120.484C120.484 280.848 120.521 280.72 120.521 280.666V280.611Z" fill="#0093D7"/>
<path d="M120.63 280.811L119.502 279.974C119.502 279.974 116.248 284.215 108.41 285.981C108.156 286.036 107.465 287.365 107.465 287.237C107.465 286.509 108.047 285.927 108.774 285.927C109.41 285.927 109.938 286.382 110.065 287.001C117.448 284.98 120.484 280.993 120.63 280.811Z" fill="#0093D7"/>
<path d="M108.774 285.927C108.047 285.927 107.465 286.509 107.465 287.237C107.465 287.365 107.483 287.474 107.519 287.565C107.829 287.51 108.156 287.456 108.465 287.383C109.029 287.255 109.556 287.128 110.083 286.982C109.974 286.382 109.429 285.908 108.792 285.908" fill="#0093D7"/>
<path d="M120.102 285.599C120.102 285.599 119.92 285.599 119.848 285.617C119.92 285.617 120.011 285.599 120.102 285.599C120.175 285.599 120.248 285.599 120.32 285.599C120.284 285.599 120.248 285.599 120.211 285.599H120.102Z" fill="#0093D7"/>
<path d="M120.611 285.635C120.611 285.635 120.411 285.562 120.321 285.544C120.211 285.526 120.139 285.508 120.102 285.49C114.193 284.325 111.538 280.902 111.483 280.829L110.883 281.266L110.283 281.703C110.41 281.867 113.011 285.271 118.793 286.709C119.575 286.91 120.411 287.055 121.302 287.164C121.339 287.037 121.357 286.91 121.357 286.782C121.357 286.254 121.048 285.799 120.593 285.599" fill="#0093D7"/>
<path d="M72.9159 295.939C72.4613 295.939 72.0977 295.575 72.0977 295.12V294.446H84.3716V295.939H72.8977H72.9159Z" fill="#0093D7"/>
<path d="M72.8254 276.588H71.207V295.939H72.8254V276.588Z" fill="#0093D7"/>
<path d="M90.5177 294.446C90.9723 294.446 91.336 294.81 91.336 295.265V295.939H84.208V294.446H90.5177Z" fill="#0093D7"/>
<path d="M90.2815 275.823H72.0434C71.5888 275.823 71.2251 276.187 71.2251 276.642V277.334H91.1179V276.642C91.1179 276.187 90.7542 275.823 90.2997 275.823" fill="#0093D7"/>
<path d="M89.6447 291.333C88.3173 290.041 86.3171 288.184 83.6623 285.799C85.5898 283.797 87.3718 281.649 88.9174 279.428L88.9719 279.337L88.1718 278.809C88.0446 278.736 87.9173 278.699 87.7718 278.699C87.5354 278.699 87.3354 278.809 87.1899 278.991C85.7352 280.957 84.1533 282.905 82.4804 284.761C80.4984 282.832 78.4982 281.011 76.5525 279.355C76.4253 279.246 76.2616 279.173 76.0798 279.173C75.8798 279.173 75.6979 279.264 75.5706 279.391L75.0069 279.956L75.0979 280.028C75.8252 280.684 77.0071 281.776 78.6437 283.287C79.8256 284.397 80.7711 285.289 81.4257 285.89C79.0437 288.22 76.8617 290.059 74.916 291.406C74.6796 291.588 74.5342 291.861 74.5342 292.171C74.5342 292.407 75.207 293.39 75.207 293.39L75.2979 293.317C77.8436 291.37 80.2438 289.221 82.4622 286.946C84.5897 288.894 86.6808 290.933 88.6992 293.008L88.7719 293.081L89.5902 292.334C89.7174 292.207 89.7902 292.025 89.7902 291.825C89.7902 291.624 89.7174 291.461 89.5902 291.315" fill="#0093D7"/>
<path d="M143.868 286.291H143.723V296.212H144.541C144.995 296.212 145.359 295.848 145.359 295.393V286.291H143.85H143.868Z" fill="#0093D7"/>
<path d="M154.215 279.173L154.251 279.191L154.197 279.155L154.215 279.173Z" fill="#0093D7"/>
<path d="M155.16 280.01L155.233 279.919L154.906 279.683L154.706 279.537L154.633 279.628L153.869 279.064L155.16 280.01Z" fill="#0093D7"/>
<path d="M153.778 279.009L153.869 279.064L154.651 279.628L154.706 279.537L154.251 279.191L154.197 279.155L153.851 278.9L153.778 279.009Z" fill="#0093D7"/>
<path d="M154.906 279.683L155.233 279.919L154.706 279.537L154.906 279.683Z" fill="#0093D7"/>
<path d="M155.451 278.208L153.233 276.588L151.997 275.678L151.924 275.769L151.524 276.315C151.251 276.679 151.342 277.189 151.706 277.462L153.87 279.045L153.779 278.991L153.851 278.9L154.197 279.155H154.233L154.251 279.191L154.724 279.537L155.233 279.919L155.633 279.373C155.906 279.009 155.815 278.499 155.47 278.226" fill="#0093D7"/>
<path d="M152.506 279.264H136.704V279.937C136.704 280.392 137.068 280.757 137.522 280.757H152.069C152.524 280.757 152.887 280.392 152.887 279.937V279.264H152.506Z" fill="#0093D7"/>
<path d="M152.905 279.264V279.937C152.905 280.392 152.542 280.757 152.087 280.757H151.487L151.142 285.708L151.051 286.891H152.669L152.76 285.708L153.215 279.246H152.905V279.264Z" fill="#0093D7"/>
<path d="M155.524 286.163H152.76L152.669 287.346H151.051L151.142 286.163H135.231V286.837C135.231 287.292 135.595 287.656 136.049 287.656H155.106C155.56 287.656 155.924 287.292 155.924 286.837V286.163H155.542H155.524Z" fill="#0093D7"/>
<path d="M152.36 294.137C152.36 294.137 152.324 294.137 152.306 294.137H152.415C152.415 294.137 152.378 294.137 152.36 294.137ZM155.088 287.674H154.288V293.044H148.451V293.718C148.451 294.173 148.796 294.537 149.233 294.537H155.051C155.506 294.501 155.851 294.137 155.888 293.7C155.888 293.682 155.888 293.645 155.888 293.627V286.837C155.888 287.292 155.524 287.656 155.069 287.656" fill="#0093D7"/>
<path d="M154.015 286.163H149.96V287.474H154.015V286.163Z" fill="#0093D7"/>
<path d="M125.485 207.994H124.066V228.074H125.485V207.994Z" fill="#0093D7"/>
<path d="M63.6059 210.343V210.088H63.8423H63.9878L64.115 210.197L76.4253 228.11H78.5528L78.6437 208.104H77.2254L77.1527 225.871V226.126H76.8981H76.7708L76.6435 226.017L64.2787 208.049L62.1876 208.031L62.0967 228.11H62.6786H63.515L63.6059 210.343Z" fill="#0093D7"/>
<path d="M154.706 221.393H144.523L144.668 221.047L149.451 209.76L149.687 209.214L149.923 209.76L154.56 221.047L154.706 221.393ZM148.96 208.013L140.213 228.092H141.668L143.923 222.776L143.977 222.612H155.197L155.251 222.776L157.415 228.092H159.033L150.596 208.013H148.941H148.96Z" fill="#0093D7"/>
<path d="M42.713 221.393H32.5302L32.6757 221.047L37.4579 209.76L37.6943 209.214L37.9125 209.76L42.5493 221.047L42.6948 221.393H42.713ZM36.967 208.013L28.2207 228.092H29.6754L31.9301 222.776L31.9847 222.612H43.204L43.2767 222.776L45.4405 228.092H47.0407L38.6035 208.013H36.9488H36.967Z" fill="#0093D7"/>
<path d="M7.65526 219.427V219.499L7.61889 228.11H9.03721L9.07358 219.499L9.09176 219.427L9.12813 219.372L16.4561 208.067H14.9105L8.58262 217.679L8.3826 218.007L8.1644 217.679L2.07291 207.994H0.381836L7.61889 219.354L7.65526 219.427Z" fill="#0093D7"/>
<path d="M92.8271 209.232L99.5914 209.269H99.846V209.524L99.7733 228.11H101.192L101.264 209.524V209.269H101.519L108.283 209.305V208.067L92.8271 207.994V209.232Z" fill="#0093D7"/>
<path d="M174.617 210.306V210.052H174.871H174.998L175.126 210.179L187.436 228.074H189.563L189.654 208.067H188.236L188.163 225.835V226.089H187.927H187.781L187.654 225.98L175.289 207.994H173.216L173.125 228.074H173.689H174.544L174.617 210.306Z" fill="#0093D7"/>
<path d="M173.689 228.074L174.544 228.092V228.074H173.689Z" fill="#0093D7"/>
<path d="M144.559 275.678H143.868L143.723 275.696V287.947H145.359V276.479C145.359 276.023 144.995 275.659 144.541 275.659" fill="#0093D7"/>
<path d="M144.087 275.678H143.741V276.224H144.087V275.678Z" fill="#0093D7"/>
<path d="M174.562 277.953H169.744V279.5H174.562V277.953Z" fill="#0093D7"/>
<path d="M174.453 277.953C174.271 277.953 174.053 278.099 173.98 278.281L172.58 282.122C172.508 282.304 172.508 282.45 172.544 282.468C172.598 282.468 172.78 282.522 172.962 282.559L173.435 282.668C173.617 282.723 173.799 282.759 173.835 282.777C173.871 282.777 173.962 282.65 174.017 282.468L174.999 279.482C175.053 279.3 175.108 278.991 175.108 278.809V278.281C175.108 278.099 174.944 277.935 174.762 277.935H174.417L174.453 277.953Z" fill="#0093D7"/>
<path d="M188.763 294.756H177.835V296.212H188.763V294.756Z" fill="#0093D7"/>
<path d="M177.108 283.232C177.108 282.595 177.672 282.067 178.381 282.067H178.654V296.212H177.108V283.232Z" fill="#0093D7"/>
<path d="M178.853 282.067H178.417V296.23H178.853V282.067Z" fill="#0093D7"/>
<path d="M186.691 281.831C187.4 281.831 187.964 282.413 187.964 283.105V283.342H177.09V281.831H186.673H186.691Z" fill="#0093D7"/>
<path d="M187.491 290.022C188.2 290.022 188.764 290.605 188.764 291.315V291.552H178.69V290.041H187.491V290.022Z" fill="#0093D7"/>
<path d="M187.963 286.072H178.854V287.528H187.963V286.072Z" fill="#0093D7"/>
<path d="M187.963 283.323H186.381V286.072H187.963V283.323Z" fill="#0093D7"/>
<path d="M188.763 291.351H187.218V296.121H188.763V291.351Z" fill="#0093D7"/>
<path d="M170.107 283.196V293.773H171.635V281.903H171.38C170.671 281.903 170.107 282.486 170.107 283.178" fill="#0093D7"/>
<path d="M171.817 294.592H171.635L171.598 287.164H170.107V295.229C170.107 295.229 170.107 295.284 170.107 295.302C170.144 295.793 170.526 296.176 171.017 296.212H172.599V294.592H171.798H171.817Z" fill="#0093D7"/>
<path d="M174.471 294.592H171.907V296.212H174.035C174.507 296.212 174.871 295.811 174.871 295.32V294.592H174.471Z" fill="#0093D7"/>
<path d="M183.727 278.299V276.515C183.727 276.042 183.345 275.678 182.89 275.678H182.036V279.446L183.727 279.355V278.317V278.299Z" fill="#0093D7"/>
<path d="M169.871 275.659C169.289 278.335 168.344 281.084 167.053 283.833L166.998 283.924L167.071 283.997C167.307 284.234 167.562 284.579 167.816 285.016L167.962 285.271L168.089 285.016C169.489 282.231 170.598 279.136 171.417 275.878L169.871 275.678" fill="#0093D7"/>
<path d="M188.709 277.953H177.017C176.308 277.953 175.726 278.536 175.726 279.227V281.084C175.726 281.266 175.89 281.43 176.072 281.43H177.035C177.217 281.43 177.381 281.266 177.381 281.084V279.5H188.309V280.848C188.309 281.048 188.473 281.193 188.655 281.193H189.618C189.8 281.193 189.964 281.03 189.964 280.848V279.227C189.964 278.517 189.4 277.953 188.691 277.953" fill="#0093D7"/>
</g>
<defs>
<clipPath id="clip0_1602_896">
<rect width="190" height="296" fill="white" transform="translate(0 0.211914)"/>
</clipPath>
</defs>
</svg>
