<svg width="250" height="190" viewBox="0 0 250 190" fill="none" xmlns="http://www.w3.org/2000/svg">
<mask id="path-1-inside-1_1283_7413" fill="white">
<path fill-rule="evenodd" clip-rule="evenodd" d="M20 0C8.9543 0 0 8.9543 0 20V146C0 157.046 8.9543 166 20 166H102.275L125 190L147.725 166H230C241.046 166 250 157.046 250 146V20C250 8.9543 241.046 0 230 0H20Z"/>
</mask>
<path fill-rule="evenodd" clip-rule="evenodd" d="M20 0C8.9543 0 0 8.9543 0 20V146C0 157.046 8.9543 166 20 166H102.275L125 190L147.725 166H230C241.046 166 250 157.046 250 146V20C250 8.9543 241.046 0 230 0H20Z" fill="white"/>
<path d="M102.275 166L105.18 163.25C104.425 162.452 103.374 162 102.275 162V166ZM125 190L122.095 192.75C122.851 193.548 123.901 194 125 194C126.099 194 127.149 193.548 127.905 192.75L125 190ZM147.725 166V162C146.626 162 145.575 162.452 144.82 163.25L147.725 166ZM4 20C4 11.1634 11.1634 4 20 4V-4C6.74517 -4 -4 6.74516 -4 20H4ZM4 146V20H-4V146H4ZM20 162C11.1634 162 4 154.837 4 146H-4C-4 159.255 6.74516 170 20 170V162ZM102.275 162H20V170H102.275V162ZM99.3709 168.75L122.095 192.75L127.905 187.25L105.18 163.25L99.3709 168.75ZM127.905 192.75L150.629 168.75L144.82 163.25L122.095 187.25L127.905 192.75ZM230 162H147.725V170H230V162ZM246 146C246 154.837 238.837 162 230 162V170C243.255 170 254 159.255 254 146H246ZM246 20V146H254V20H246ZM230 4C238.837 4 246 11.1634 246 20H254C254 6.74517 243.255 -4 230 -4V4ZM20 4H230V-4H20V4Z" fill="#3692FF" mask="url(#path-1-inside-1_1283_7413)"/>
</svg>
