<svg width="100%" height="100%" viewBox="0 0 132 205" fill="none" xmlns="http://www.w3.org/2000/svg">
<rect x="60.5323" y="77.9207" width="12.646" height="126.582" rx="5" fill="#3692FF"/>
<path d="M66.223 169.794C101.286 169.794 129.556 140.075 129.556 103.607C129.556 85.479 122.571 60.3754 111.348 39.8038C105.728 29.5025 98.9884 20.2298 91.4253 13.508C83.865 6.78874 75.3442 2.50293 66.223 2.50293C57.1018 2.50293 48.5809 6.78874 41.0207 13.508C33.4575 20.2298 26.7179 29.5025 21.098 39.8038C9.87523 60.3754 2.88965 85.479 2.88965 103.607C2.88965 140.075 31.1602 169.794 66.223 169.794Z" fill="white" stroke="#3692FF" stroke-width="4"/>
<mask id="mask0_1473_3801" style="mask-type:alpha" maskUnits="userSpaceOnUse" x="4" y="4" width="124" height="164">
<path d="M127.556 103.607C127.556 139.057 100.096 167.794 66.223 167.794C32.3495 167.794 4.88965 139.057 4.88965 103.607C4.88965 68.1579 32.3495 4.50293 66.223 4.50293C100.096 4.50293 127.556 68.1579 127.556 103.607Z" fill="#E7F2FF"/>
</mask>
<g mask="url(#mask0_1473_3801)">
<path d="M90.2505 98.8063C95.8147 68.4265 74.0214 19.4814 62.4292 -1.19375L94.6766 -11.3203L185.728 93.743L173.714 212.73L14.3742 220.958L-9.021 144.376C-2.06567 142.899 15.7653 141.971 31.4464 150.072C51.0477 160.199 83.2952 136.781 90.2505 98.8063Z" fill="#E7F2FF"/>
</g>
</svg>
