<svg width="132" height="205" viewBox="0 0 132 205" fill="none" xmlns="http://www.w3.org/2000/svg">
<rect x="60.5322" y="78.2627" width="12.646" height="126.582" rx="5" fill="#3692FF"/>
<path d="M66.223 170.136C101.286 170.136 129.556 140.416 129.556 103.949C129.556 85.8208 122.571 60.7172 111.348 40.1456C105.728 29.8443 98.9884 20.5716 91.4253 13.8498C83.865 7.13054 75.3442 2.84473 66.223 2.84473C57.1018 2.84473 48.5809 7.13054 41.0207 13.8498C33.4575 20.5716 26.7179 29.8443 21.098 40.1456C9.87523 60.7172 2.88965 85.8208 2.88965 103.949C2.88965 140.416 31.1602 170.136 66.223 170.136Z" fill="white" stroke="#3692FF" stroke-width="4"/>
<mask id="mask0_323_6632" style="mask-type:alpha" maskUnits="userSpaceOnUse" x="4" y="4" width="124" height="165">
<path d="M127.556 103.949C127.556 139.398 100.096 168.136 66.223 168.136C32.3495 168.136 4.88965 139.398 4.88965 103.949C4.88965 68.4997 32.3495 4.84473 66.223 4.84473C100.096 4.84473 127.556 68.4997 127.556 103.949Z" fill="#E7F2FF"/>
</mask>
<g mask="url(#mask0_323_6632)">
<path d="M90.2505 99.1481C95.8147 68.7683 74.0214 19.8232 62.4292 -0.851933L94.6766 -10.9785L185.728 94.0848L173.714 213.072L14.3742 221.3L-9.021 144.718C-2.06567 143.241 15.7653 142.313 31.4464 150.414C51.0477 160.54 83.2952 137.123 90.2505 99.1481Z" fill="#E7F2FF"/>
</g>
</svg>
