<svg width="65" height="64" viewBox="0 0 65 64" fill="none" xmlns="http://www.w3.org/2000/svg">
<circle cx="32.6152" cy="32" r="30" fill="white" stroke="#3692FF" stroke-width="4" stroke-linejoin="round"/>
<path d="M21.6152 47C21.6152 47 27.1162 52 32.6162 52C38.1162 52 43.1162 47 43.1162 47" stroke="#3692FF" stroke-width="4"/>
<path d="M35.6824 2.17469C35.6867 2.20462 35.6909 2.23457 35.6951 2.26454C40.2457 3.13231 49.3167 6.1862 54.6151 11.5C60.6314 17.5338 63.8985 26.4719 63.1151 31.5C44.7 21.7508 38.1668 14.0743 35.663 8.13493C34.2069 17.4327 25.6725 26.8307 3.11523 29C3.11547 22.5 5.61523 14.7132 10.7713 10.1882C19.7954 2.2687 31.1388 1.54617 35.6824 2.17469Z" fill="#3692FF"/>
<ellipse cx="16.6152" cy="34.5" rx="3" ry="4.5" fill="#3692FF"/>
<ellipse cx="48.6152" cy="34.5" rx="3" ry="4.5" fill="#3692FF"/>
</svg>
