<svg width="383" height="180" viewBox="0 0 383 180" fill="none" xmlns="http://www.w3.org/2000/svg">
<mask id="path-1-inside-1_1283_9900" fill="white">
<path fill-rule="evenodd" clip-rule="evenodd" d="M20.6152 0C9.56954 0 0.615234 8.9543 0.615234 20V130C0.615234 141.046 9.56953 150 20.6152 150H48.2947L65.6152 180L82.9357 150H362.615C373.661 150 382.615 141.046 382.615 130V20C382.615 8.95431 373.661 0 362.615 0H20.6152Z"/>
</mask>
<path fill-rule="evenodd" clip-rule="evenodd" d="M20.6152 0C9.56954 0 0.615234 8.9543 0.615234 20V130C0.615234 141.046 9.56953 150 20.6152 150H48.2947L65.6152 180L82.9357 150H362.615C373.661 150 382.615 141.046 382.615 130V20C382.615 8.95431 373.661 0 362.615 0H20.6152Z" fill="white"/>
<path d="M48.2947 150L51.7588 148C51.0443 146.762 49.7238 146 48.2947 146V150ZM65.6152 180L62.1511 182C62.8657 183.238 64.1862 184 65.6152 184C67.0443 184 68.3648 183.238 69.0793 182L65.6152 180ZM82.9357 150V146C81.5067 146 80.1862 146.762 79.4716 148L82.9357 150ZM4.61523 20C4.61523 11.1634 11.7787 4 20.6152 4V-4C7.3604 -4 -3.38477 6.74516 -3.38477 20H4.61523ZM4.61523 130V20H-3.38477V130H4.61523ZM20.6152 146C11.7787 146 4.61523 138.837 4.61523 130H-3.38477C-3.38477 143.255 7.36039 154 20.6152 154V146ZM48.2947 146H20.6152V154H48.2947V146ZM69.0793 178L51.7588 148L44.8306 152L62.1511 182L69.0793 178ZM79.4716 148L62.1511 178L69.0793 182L86.3998 152L79.4716 148ZM362.615 146H82.9357V154H362.615V146ZM378.615 130C378.615 138.837 371.452 146 362.615 146V154C375.87 154 386.615 143.255 386.615 130H378.615ZM378.615 20V130H386.615V20H378.615ZM362.615 4C371.452 4 378.615 11.1634 378.615 20H386.615C386.615 6.74517 375.87 -4 362.615 -4V4ZM20.6152 4H362.615V-4H20.6152V4Z" fill="#3692FF" mask="url(#path-1-inside-1_1283_9900)"/>
</svg>
